<svg xmlns="http://www.w3.org/2000/svg" viewBox="0 0 335.62 292.31"><defs><style>.cls-1{fill:#5090dd;}.cls-2{fill:#1e4b7c;}.cls-3{fill:#242628;}.cls-4{fill:#fff;}.cls-5{fill:#598af0;}.cls-6{fill:#1a1e21;}.cls-7{fill:#f4a882;}.cls-8{fill:#ffc19f;}.cls-9{fill:#141413;}.cls-10{fill:#e6663e;}.cls-11{fill:#dfe3e5;}.cls-12{fill:#b1b1b2;}.cls-13{fill:#09536d;}.cls-14{fill:#3e72ce;}.cls-15{fill:#012d3d;}.cls-16{fill:#c9730d;}.cls-17{fill:#a05300;}.cls-18{fill:#0b293f;}.cls-19{fill:#0f3456;}.cls-20{fill:#f6981d;}.cls-21{fill:#7a3d00;}</style></defs><g id="图层_2" data-name="图层 2"><g id="OBJECTS"><path class="cls-1" d="M150.36,287c0,3-33.66,5.35-75.18,5.35S0,289.92,0,287s33.66-5.35,75.18-5.35S150.36,284,150.36,287Z"/><path class="cls-2" d="M99.91,29.32c1.56,4,.66,8.12-2,9.16s-6.1-1.39-7.66-5.41-.66-8.12,2-9.16S98.35,25.29,99.91,29.32Z"/><path class="cls-3" d="M104.11,157.78l-19.53,1.73c0,6.45-.44,13.68-.09,22.73.72,18.79.87,41.66,1.49,60.53.41,12.69.08,24.61-.35,31.66l9.63-.12C98.31,249,104.81,185.31,104.11,157.78Z"/><path class="cls-3" d="M49.5,273.5h8.73S90,160,88.43,160l-24.33-.5C64.09,163.22,49.5,273.5,49.5,273.5Z"/><path class="cls-4" d="M85.66,231.29c.1,3.94.2,7.79.32,11.48.41,12.69.08,24.61-.35,31.66l9.63-.12c1.2-9.92,2.92-25.76,4.54-43Z"/><path class="cls-4" d="M49.5,273.5h8.73S63.68,254.07,70,231.29H55.05C52.07,254.1,49.5,273.5,49.5,273.5Z"/><path class="cls-3" d="M104.11,157.78c0-8.73-9.26-15.81-20.69-15.81s-20.68,7.08-20.68,15.81a12.42,12.42,0,0,0,.27,2.45C62.57,165,53,244.29,49.5,269.92a17.44,17.44,0,0,0,4.16.38,54.64,54.64,0,0,0,6.07-.51c1.15-4.14,18.36-61.83,19.5-66s2.22-8.07,3.25-11.87c1.93-7.06,3.64-13.46,5-18.64C97,171.86,104.11,165.46,104.11,157.78Z"/><path class="cls-5" d="M93.77,61.22a10.4,10.4,0,0,1,.55,2.68c.12,3.33-2.22,6.65-6.47,7.45s-13-1.66-14.22-6.28a12.55,12.55,0,0,1-.35-4.81c-9.77,6.28-30.43,16.17-22.5,21.89a49.89,49.89,0,0,1,7.71,6.51l24.58-.52,26.67-.52.09-10.35C109.64,68.26,103.44,66.48,93.77,61.22Z"/><path class="cls-4" d="M73.63,65.07c1.23,4.62,10,7.08,14.22,6.28s6.59-4.12,6.47-7.45a10.4,10.4,0,0,0-.55-2.68c-1.76-1-3.47-1.95-5-3s-5.73-2-6.29-1.74c-.57-.25-5,.85-6.6,2-.82.6-1.69,1.18-2.57,1.75A12.55,12.55,0,0,0,73.63,65.07Z"/><path class="cls-5" d="M109.83,77.27,105.35,84,62.89,86.26l-4.4,2.4,2.62,51.05,1.21,16.13c5.57,2.12,17.75,5.83,30.66,3.67a24.57,24.57,0,0,0,15.63-9.19C109.21,132.62,110.82,89.73,109.83,77.27Z"/><path class="cls-3" d="M107.36,158.23l-24.93,8.55c.41,6-.25,2.63-.25,2.66L76,171.6c.55,0-1.25,5.15,6.44,20.33.34,7.84,2.2,69.94,2.57,78.16a18.43,18.43,0,0,0,11.58.21C98.87,248.17,107.7,171.82,107.36,158.23Z"/><path class="cls-4" d="M93,159.51c-12.91,2.16-25.09-1.55-30.66-3.67l.28,3.79a1.68,1.68,0,0,0,1.17,1.47c5.78,1.76,33.11,9.27,44.22-3a1.61,1.61,0,0,0,.42-1.07c0-2.18.12-4.44.2-6.74A24.57,24.57,0,0,1,93,159.51Z"/><path class="cls-6" d="M54.24,255.36c-.19,0,.47-6.33,5.55-46.09s6-46,6.21-46-.47,6.33-5.55,46.09S54.42,255.38,54.24,255.36Z"/><path class="cls-6" d="M86.83,255.36c-.18,0-.5-4.23-1.57-31s-1.09-31-.91-31.06.5,4.23,1.57,31S87,255.35,86.83,255.36Z"/><path class="cls-6" d="M86.87,178c0-.1.38,0,1.79.17a16.73,16.73,0,0,0,3,.24,4.66,4.66,0,0,0,1-.12,1.85,1.85,0,0,0,.44-.15,1.49,1.49,0,0,0,.3-.4,10.21,10.21,0,0,0,.81-2.72c.7-4.3.75-6.86.91-8.29s.21-1.78.3-1.78.18.36.17,1.81a52,52,0,0,1-.73,8.38A10.41,10.41,0,0,1,94,178.1a2.08,2.08,0,0,1-.49.59,2,2,0,0,1-.68.26,6.09,6.09,0,0,1-1.15.11,13.12,13.12,0,0,1-3.12-.39C87.16,178.32,86.85,178.12,86.87,178Z"/><path class="cls-6" d="M84.35,185c-.08,0,0-.39.45-1.7s1.33-3.64,2.42-7.76,1.45-6.58,1.72-7.95.36-1.71.45-1.7.15.36,0,1.76a54,54,0,0,1-1.54,8.05,53.19,53.19,0,0,1-2.62,7.77C84.64,184.77,84.44,185.05,84.35,185Z"/><path class="cls-4" d="M75,62.35c.76,5,19.3,8.65,18.65.66L91.41,47.07,76.24,51.45a1.65,1.65,0,0,0-1.14,1.94C76.33,58.82,76.06,59.16,75,62.35Z"/><path class="cls-2" d="M75,51c-1.14.25-1.49,2.92-1.85,4.61s-.36,5.23,1.51,6.14,20,2.45,20.44-.51,1.73-7.77,0-8.3-8,0-11.31-1S75,51,75,51Z"/><path class="cls-7" d="M91.65,57s1.77-14.82.29-19.05L89.36,20.48c-1.48-4.23-5-7.92-9.09-7.24l-9.89,1.7c-4,.69-6.93,5.77-5.45,10l9.58,24.55C76,53.72,81.27,58.63,91.65,57Z"/><path class="cls-8" d="M91.78,56.94l.27,0c5.82-1,8.83-7.46,7.83-13.29l-2.8-26.47a2.76,2.76,0,0,0-3.17-2.25L74.16,18.29c-1.49.26-4.33,2-4.07,3.5l5.34,22.69C76.8,52.5,83.76,58.31,91.78,56.94Z"/><path class="cls-9" d="M96.66,33.54c.35,1.5-.13,2.89-1.07,3.11s-2-.82-2.33-2.32.13-2.89,1.07-3.11S96.31,32,96.66,33.54Z"/><path class="cls-9" d="M83.24,36.41c.43,1.48,0,2.89-.9,3.16s-2-.72-2.45-2.2,0-2.89.91-3.16S82.82,34.93,83.24,36.41Z"/><path class="cls-3" d="M96.07,27.57a15.29,15.29,0,0,0-4,.77,1,1,0,0,1-1.28-.72h0a1,1,0,0,1,.58-1.16A12.55,12.55,0,0,1,96,25.57a1,1,0,0,1,.95.88h0A1,1,0,0,1,96.07,27.57Z"/><path class="cls-3" d="M82.56,30.81a16,16,0,0,0-4.44,1.08,1,1,0,0,1-1.31-.66l0-.13a1,1,0,0,1,.52-1.19,13.45,13.45,0,0,1,5.11-1.23,1,1,0,0,1,1,.83l0,.13A1,1,0,0,1,82.56,30.81Z"/><path class="cls-7" d="M67.65,44.8c1.83,2.56,4.62,3.69,6.25,2.52a2.27,2.27,0,0,0,.43-.39c1.15-1.36.86-4-.79-6.34-1.82-2.56-4.62-3.68-6.25-2.52S65.83,42.24,67.65,44.8Z"/><path class="cls-8" d="M79.33,40.3s.3-1.43,2.65-2.17a6.29,6.29,0,0,1,4.72.76l-3.16,2.18Z"/><path class="cls-8" d="M91.39,37.38S91.69,36,94,35.21a6.27,6.27,0,0,1,4.72.77L95.6,38.15Z"/><path class="cls-3" d="M73.86,24.08A83,83,0,0,0,89.8,22.79c6.9-1.48,8.43-3.08,8.43-3.08S97,11.21,93.15,9.34a63.89,63.89,0,0,0-15.27.49c-10.15,1.51-12.24,4.1-14.7,10.28S66.31,32,69.84,37.77L74,38.7S73.06,35.76,73.86,24.08Z"/><path class="cls-7" d="M92.76,37.42a7.2,7.2,0,0,1,1.8,2.73c.5,1.54-3.42,2.69-3.42,2.69a10.37,10.37,0,0,0,2-2.28C93.47,39.68,92.76,37.42,92.76,37.42Z"/><path class="cls-4" d="M96,47.47c.12-.52.2-1,.25-1.39a.44.44,0,0,0-.62-.47,22.49,22.49,0,0,1-2.55,1,22.43,22.43,0,0,1-5.79.34.45.45,0,0,0-.41.66,13.2,13.2,0,0,0,.94,1.46,39.13,39.13,0,0,0,5.34-.63A23.08,23.08,0,0,0,96,47.47Z"/><path class="cls-10" d="M91.64,50.17a7.93,7.93,0,0,0-2.67.16,4.71,4.71,0,0,0,3.72,1.53,2.58,2.58,0,0,0,.89-.28A3.58,3.58,0,0,0,91.64,50.17Z"/><path class="cls-9" d="M96,47.47a23.08,23.08,0,0,1-2.84,1,39.13,39.13,0,0,1-5.34.63A9.33,9.33,0,0,0,89,50.33a7.93,7.93,0,0,1,2.67-.16,3.58,3.58,0,0,1,1.94,1.41C95,50.88,95.68,49,96,47.47Z"/><path class="cls-7" d="M18.82,136.41l3.93.63a15.1,15.1,0,0,1,3.17.21,53.44,53.44,0,0,0,7.69-4.39l3.62,9c-2.16,1.11-3.95,1.9-5.22,2.41l-.9.83a1.56,1.56,0,0,1-.23.34l-4.5,4.06h0L20.31,155c-.7.7-1.5,1.18-2.19.47L18,155.3c-.69-.7-.15-1.44.56-2.14l2.36-2.55L16,155.08c-.71.69-1.5,1.18-2.2.47l-.12-.13c-.7-.71-.16-1.45.55-2.14l.47-.51-2.86,2.32c-.75.66-1.57,1.1-2.22.35l-.12-.13c-.66-.75-.08-1.46.67-2.11l3.59-3.48-3.11,2c-.81.58-1.67.93-2.25.12l-.1-.15c-.58-.8.08-1.45.88-2L19,142A10.9,10.9,0,0,0,20,140.1c-.92-.35-2.22-.68-3.55-1.08-4.31-1.3-2.74-3.55-2.74-3.55Z"/><path class="cls-7" d="M159.44,80.18l.45,3.95a15.18,15.18,0,0,0,.07,3.18c-1.37,2.64-1.33,5.78-3.09,8.13l5.59,2.22c1.22-2.11,3.66-2.7,4.22-4l.88-.85a1.86,1.86,0,0,0,.35-.22l4.26-4.31h0l5.74-5.8c.73-.67,1.25-1.44.57-2.17l-.12-.13c-.68-.73-1.44-.22-2.17.45l-2.65,2.25,4.69-4.75c.72-.67,1.24-1.44.57-2.17l-.12-.13c-.68-.73-1.44-.22-2.17.46l-.52.44L178.43,74c.69-.72,1.17-1.51.46-2.2l-.13-.13c-.72-.69-1.45-.14-2.14.57L173,75.7l2.16-3c.61-.78,1-1.62.23-2.23l-.15-.11c-.78-.61-1.45,0-2.06.79L165,80.62a11.76,11.76,0,0,1-1.9.86c-.31-.94-.58-2.26-.92-3.6-1.09-4.37-3.41-2.9-3.41-2.9Z"/><path class="cls-3" d="M112.05,286.74H84.71c-.22,0-.39-.43-.35-.9l.25-2.66h27.93l0,2.45C112.57,286.24,112.34,286.74,112.05,286.74Z"/><path class="cls-4" d="M105.42,277.92l-.46-.09c-11.34-1.21-4.23-20.86-7.39-22.7a3.51,3.51,0,0,0-1.39,0c-3,1.65-6.32,2.51-10.1.33-.53,0-2.28.17-2.27.82l.74,27.26,28,.12C113,278.32,109.35,277.92,105.42,277.92Z"/><path class="cls-11" d="M105.42,277.92l-.46-.09v5.79l7.55,0C113,278.32,109.35,277.92,105.42,277.92Z"/><path class="cls-11" d="M84.59,274.79l0,8.75,8.75,0v0A8.74,8.74,0,0,0,84.59,274.79Z"/><rect class="cls-12" x="93.54" y="258.5" width="5.29" height="3.98"/><rect class="cls-12" x="93.96" y="266.4" width="4.87" height="0.96"/><rect class="cls-12" x="93.96" y="268.41" width="4.87" height="0.96"/><polygon class="cls-12" points="98.83 271.39 93.96 271.39 93.93 270.43 98.8 270.43 98.83 271.39"/><path class="cls-4" d="M59.93,274.52,64.86,257a1,1,0,0,0-1-1l-13.19-.55a1,1,0,0,0-.89.91c-.1.77-1.42,17.78-1.57,18.9a6.61,6.61,0,0,0-1.83,4.72v3.59H62.64v-3.59A6,6,0,0,0,59.93,274.52Z"/><path class="cls-3" d="M60.91,287H48.14a1.73,1.73,0,0,1-1.73-1.73v-1.85H62.65v1.86A1.73,1.73,0,0,1,60.91,287Z"/><polygon class="cls-12" points="60.88 262.48 51.51 262.48 52.41 258.5 61.77 258.5 60.88 262.48"/><rect class="cls-12" x="51.65" y="266.4" width="8.53" height="0.96"/><rect class="cls-12" x="51.09" y="268.41" width="8.53" height="0.96"/><polygon class="cls-12" points="58.85 271.39 50.32 271.39 50.27 270.43 58.8 270.43 58.85 271.39"/><path class="cls-11" d="M59.93,274.52H48.26c-1.1,1.05-1.83,3.44-1.84,5.39v3.59H62.64v-3.59A6,6,0,0,0,59.93,274.52Z"/><path class="cls-6" d="M79.69,165.91c.09,0,.07.32-.33,1.5a5.28,5.28,0,0,1-.44,1,9,9,0,0,1-.75,1.34A10.75,10.75,0,0,1,74.92,173a11.22,11.22,0,0,1-4.29,1.57,11.41,11.41,0,0,1-2.65.09c-1.24-.13-1.52-.31-1.5-.39s.31-.08,1.51-.08a14.51,14.51,0,0,0,2.54-.22,11.48,11.48,0,0,0,4-1.53,10.81,10.81,0,0,0,3.09-3,9.27,9.27,0,0,0,.77-1.25,6,6,0,0,0,.5-1C79.42,166.13,79.61,165.88,79.69,165.91Z"/><path class="cls-2" d="M79.7,9.52c0,.18-.07.38-.44.64s-1,.54-2,1.05a15.51,15.51,0,0,0-3.82,2.59,13.18,13.18,0,0,0-3.75,6.76,28.2,28.2,0,0,0-.54,8.15c.15,2.15.37,3.72.5,4.87.3,2.3.21,2.91-.15,3s-.89-.32-1.67-2.62a26.14,26.14,0,0,1-1.1-5.05,25.43,25.43,0,0,1,.39-9,14.54,14.54,0,0,1,4.7-8,12.72,12.72,0,0,1,4.77-2.51A6.78,6.78,0,0,1,79,9.16C79.49,9.2,79.66,9.34,79.7,9.52Z"/><path class="cls-2" d="M76.35,38.53c2,5.06.84,10.22-2.52,11.52s-7.67-1.74-9.63-6.8S63.37,33,66.72,31.74,74.39,33.48,76.35,38.53Z"/><ellipse class="cls-13" cx="66.71" cy="42.84" rx="4.03" ry="6.07" transform="translate(-10.98 27.04) rotate(-21.22)"/><path class="cls-13" d="M76.35,38.53c-2-5.05-6.27-8.09-9.63-6.79a4.39,4.39,0,0,0-1.57,1.1c3-.1,6.46,2.74,8.15,7.07,1.6,4.14,1.11,8.31-1,10.42a4.73,4.73,0,0,0,1.48-.28C77.19,48.75,78.32,43.59,76.35,38.53Z"/><path class="cls-6" d="M106.58,161.29s-.11.17-.59.51a24.28,24.28,0,0,1-2.7,1.65c-2.8,1.48-8.35,3.38-18,3.13A76.17,76.17,0,0,1,73.7,165.3c-2.94-.55-5.07-1.07-6.6-1.49-3-.85-3.75-1.2-3.72-1.28s.77.1,3.84.82c1.53.37,3.66.83,6.59,1.35a79.32,79.32,0,0,0,11.47,1.21c9.58.25,15-1.54,17.81-2.88S106.52,161.18,106.58,161.29Z"/><path class="cls-6" d="M99.92,239.62c-.18,0,.17-5.13,3.29-37.34S107,165,107.15,165s-.16,5.13-3.29,37.35S100.1,239.64,99.92,239.62Z"/><path class="cls-14" d="M85,160.19c0,.09-.4.16-2,.17a55.39,55.39,0,0,1-9.5-1.11,61,61,0,0,1-9.23-2.52c-1.55-.58-1.88-.81-1.85-.89s.42,0,2,.45,4.33,1.32,9.2,2.31a82.62,82.62,0,0,0,9.4,1.29C84.56,160,85,160.1,85,160.19Z"/><path class="cls-5" d="M58.46,69.3c-13.24,7.34-15.75,20-16.38,34.84s-6.35,25-15.08,32.3c0,0,1,4.2,6,7.94,0,0,25.5-8.47,32.16-43.26Z"/><path class="cls-5" d="M103.54,66.55c9.25,5.6,16.23,21,25.81,27.68s25.35,1.78,30.25-8c0,0,5.19,2.07,6.06,9.52,0,0-24.93,35.58-57,11.06Z"/><path class="cls-4" d="M81.23,69.3c1.37,29.81,3.36,63.59,4.23,93.63l13-1.64s-.21-47.06-8.6-92.81Z"/><path class="cls-14" d="M108.33,150.65c.08,0,0,.27-.45,1a15.52,15.52,0,0,1-3.68,3.48,23,23,0,0,1-4.38,2.48c-.81.33-1,.33-1.07.25s.12-.24.86-.67a47.65,47.65,0,0,0,4.21-2.6,23.47,23.47,0,0,0,3.69-3.24C108.07,150.73,108.26,150.6,108.33,150.65Z"/><path class="cls-14" d="M85.3,157.66c-.18,0-.58-5.48-2.18-40.18s-1.7-40.21-1.51-40.21.58,5.47,2.17,40.18S85.48,157.65,85.3,157.66Z"/><path class="cls-14" d="M98.27,153a5.08,5.08,0,0,1-.15-1.42c-.06-1.08-.13-2.88-.21-5.79-.29-5.81-.63-16.06-2.42-33.66S92.1,84.4,91.3,78.63c-.41-2.88-.66-4.67-.82-5.73a5.37,5.37,0,0,1-.11-1.43s.15.33.37,1.38.54,2.84,1,5.71c.92,5.75,2.55,15.88,4.38,33.5s2.07,27.88,2.23,33.7c0,2.92,0,4.73,0,5.8S98.32,153,98.27,153Z"/><path class="cls-14" d="M91,70.08c-.05-.08,0-.22.46-.58a7.42,7.42,0,0,0,2-2.49,8.21,8.21,0,0,0,.64-3.12c0-.57.06-.72.16-.73s.21.11.31.7a6.17,6.17,0,0,1-.51,3.42,5.78,5.78,0,0,1-2.28,2.6C91.25,70.16,91.09,70.16,91,70.08Z"/><path class="cls-14" d="M75.24,67.69c-.06.07-.2,0-.58-.31a6.22,6.22,0,0,1-1.49-2.58,6.41,6.41,0,0,1-.27-3c.1-.51.22-.62.3-.6s.14.15.17.63a10.26,10.26,0,0,0,.43,2.74A10.15,10.15,0,0,0,75,67.08C75.29,67.48,75.31,67.63,75.24,67.69Z"/><path class="cls-14" d="M58,114.27c.09,0,0,.61-.66,3-.18.6-.47,1.29-.78,2.12a21,21,0,0,1-1.27,2.81,38.43,38.43,0,0,1-5,7.65,50.2,50.2,0,0,1-6.46,6.48,47.16,47.16,0,0,1-4.27,3.2c-2.1,1.35-2.7,1.53-2.74,1.46s.46-.41,2.47-1.85c1-.74,2.38-1.74,4.15-3.27a54.77,54.77,0,0,0,6.34-6.44,41.25,41.25,0,0,0,5-7.51,27.18,27.18,0,0,0,1.31-2.74c.32-.81.64-1.48.84-2.06C57.65,114.8,57.9,114.25,58,114.27Z"/><path class="cls-14" d="M158.82,90.51s-.18.3-.91,1l-1.51,1.52c-.67.64-1.61,1.3-2.72,2.19a24.26,24.26,0,0,1-11.2,4.38,21.62,21.62,0,0,1-9.11-1,28.29,28.29,0,0,1-10-5.91,41.67,41.67,0,0,1-7.29-9,55.64,55.64,0,0,0-5.48-7.2,57.5,57.5,0,0,0-8.8-8.07C97.29,65.21,96,64.79,96,64.65s.35.06,1.29.52a36.56,36.56,0,0,1,4.79,3,57,57,0,0,1,14.55,15.3,41.93,41.93,0,0,0,7.19,8.85,28,28,0,0,0,9.72,5.79,21.07,21.07,0,0,0,8.85,1,24.28,24.28,0,0,0,11-4.16c1.11-.84,2.06-1.47,2.75-2.08l1.57-1.43C158.51,90.68,158.79,90.48,158.82,90.51Z"/><path class="cls-2" d="M77,59.66c-.89.7-1.87,18.1-6.36,35.21S67,134.16,69,138.51l8.76-2.39s-4.21-16.55-2.38-27.64S82.52,74.67,83,59.66Z"/><path class="cls-4" d="M67.42,138.35a2.15,2.15,0,0,0,.77,1.22,1.39,1.39,0,0,0,2.15-.28,6.17,6.17,0,0,0,.72-2.36L69,138.11l.74.64a1.39,1.39,0,0,0,1.93,0,3.72,3.72,0,0,0,.93-1.5l-1.69,1c.48.12,1,.25,1.43.4a1.38,1.38,0,0,0,1.73-1.32c0-.19-.83.13.23.13a2.15,2.15,0,0,0,.87-.08,1.84,1.84,0,0,0,.67-.5c.11-.11.6-.65.25-.5H74.71a3.37,3.37,0,0,0,1.41.59c.45.06,1.42-.25,1.79,0,1.42,1.06,2.79-1.32,1.39-2.36-1-.7-2.19-.37-3.21-.61a1.74,1.74,0,0,0-1.38,0c-.62.28-.6.73-1,1.14l1-.4c-.84-.09-1.36-.42-2.18.14a2.75,2.75,0,0,0-1.13,2.43L73.07,136c-.48-.15-.95-.28-1.43-.4a1.41,1.41,0,0,0-1.69,1l-.21.29h1.93a9.45,9.45,0,0,0-1.29-1.06c-.94-.68-1.95.26-2.06,1.18-.11.33-.23.65-.34,1l2.15-.28h-.07c-.53-1.67-3.18-1-2.64.73Z"/><path class="cls-2" d="M83.76,62.31s9.49,18,10.85,26.34,2.75,14.92,3.56,14.69,8.63-2.4,8-4.59-6.15-20.48-9-24.2-6.76-14.87-6.76-14.87Z"/><path class="cls-4" d="M96.48,103.44a2.12,2.12,0,0,0,2.25,1.24c1.19-.27,1.48-1.58,1.87-2.58l-2,.82c1.64,1.12,2.88.53,3.66-1.07l-.82.63.26,0-1.06-.14a2.89,2.89,0,0,0,1.93.59,2,2,0,0,0,1-.45c.15-.13.76-1.27.41-1-.34,0-.29,0,.15,0a3.66,3.66,0,0,0,.57-.05,2,2,0,0,0,1-.5,2.53,2.53,0,0,0,.68-1.91l-.4,1,.23-.19-1,.4-.2.07c1.08,1.39,3-.57,1.93-1.94a2,2,0,0,0-2.25-.75,1.86,1.86,0,0,0-.89.75,1.38,1.38,0,0,0-.19.69c0,.26,0,.29,0,.1l1-.41c-.62.05-1.17-.15-1.76.2a2.43,2.43,0,0,0-.75.78c0,.13-.11.25-.17.38.54.05.67,0,.37-.11-.2-.43-1.29-.24-1.61-.08a1.56,1.56,0,0,0-.66.56l-.14.29c-.25.52-.17.45.23-.21a1.39,1.39,0,0,0-2,.82,6.38,6.38,0,0,1-.59,1.27l1.18-.68-.35,0,1,.4-.33-.33c-.94-1.48-3.32-.11-2.36,1.39Z"/><path class="cls-15" d="M79.86,57.07c0,.09-.13.16-.58.12a6.71,6.71,0,0,1-2.45-.83,6.84,6.84,0,0,1-2-1.61c-.27-.36-.28-.49-.21-.55s.19,0,.54.21a16.91,16.91,0,0,0,2,1.37,19.54,19.54,0,0,0,2.24,1C79.79,56.89,79.88,57,79.86,57.07Z"/><path class="cls-15" d="M89.92,58.92c0-.23.32-.23,2.3-.78s2.37-.62,2.42-.44-.2.43-2.23,1.07S89.91,59.06,89.92,58.92Z"/><path class="cls-15" d="M86.19,60c-.08.23-.65-.12-5-.24a9,9,0,0,1-4.12-1c-.65-.38-.73-.58-.68-.65s.23,0,.87.23a12.7,12.7,0,0,0,4,.73C85.58,59.18,86.27,59.85,86.19,60Z"/><path class="cls-15" d="M85,62.31c0-.09.09-.22.68-.48a9.87,9.87,0,0,1,3.72-.78A14,14,0,0,0,93,60.7c.58-.17.74-.22.8-.13s0,.26-.64.57a9,9,0,0,1-3.75.57,15.41,15.41,0,0,0-3.6.57C85.21,62.42,85,62.4,85,62.31Z"/><path class="cls-15" d="M69.37,100.32c-.17,0-.22-.51.41-3.2s.88-3.09,1.06-3.05.22.5-.41,3.2S69.55,100.36,69.37,100.32Z"/><path class="cls-15" d="M71.56,90.7c-.09,0-.11-.36.09-1.74S72.26,85.17,73,81s1.27-6.54,1.59-7.9.46-1.67.55-1.65.11.36-.09,1.73-.61,3.79-1.4,8-1.27,6.55-1.58,7.9S71.65,90.72,71.56,90.7Z"/><path class="cls-4" d="M100.52,111.46a1.77,1.77,0,1,1-1.77-1.77A1.77,1.77,0,0,1,100.52,111.46Z"/><path class="cls-6" d="M98.75,109.69c0,.11-.16.12-.62.36a1.75,1.75,0,0,0-.71.79,1.48,1.48,0,0,0,2,2,1.75,1.75,0,0,0,.79-.71c.24-.46.25-.62.36-.62s.25.16.06.81a1.88,1.88,0,0,1-1,1.07,2.06,2.06,0,0,1-2.76-2.76,1.88,1.88,0,0,1,1.07-1C98.6,109.44,98.75,109.63,98.75,109.69Z"/><path class="cls-4" d="M102.29,123.5a1.77,1.77,0,1,1-1.77-1.77A1.77,1.77,0,0,1,102.29,123.5Z"/><path class="cls-6" d="M100.52,121.73c0,.11-.16.12-.62.36a1.6,1.6,0,0,0-.7.78,1.47,1.47,0,0,0,2,1.95,1.6,1.6,0,0,0,.78-.7c.24-.46.25-.63.36-.62s.25.15.07.81a1.92,1.92,0,0,1-1,1.07,2.07,2.07,0,0,1-2.77-2.77,1.92,1.92,0,0,1,1.07-1C100.37,121.48,100.53,121.66,100.52,121.73Z"/><path class="cls-4" d="M103,135.54a1.78,1.78,0,1,1-1.78-1.78A1.78,1.78,0,0,1,103,135.54Z"/><path class="cls-6" d="M101.24,133.76c0,.12-.16.13-.62.37a1.7,1.7,0,0,0-.7.78,1.47,1.47,0,0,0,2,2,1.7,1.7,0,0,0,.78-.7c.24-.46.25-.63.37-.62s.24.15.06.81a1.91,1.91,0,0,1-1,1.06,2.06,2.06,0,0,1-2.76-2.76,1.89,1.89,0,0,1,1.07-1C101.09,133.52,101.25,133.7,101.24,133.76Z"/><path class="cls-4" d="M103,147.57a1.78,1.78,0,1,1-1.78-1.77A1.78,1.78,0,0,1,103,147.57Z"/><path class="cls-6" d="M101.24,145.8c0,.11-.16.12-.62.37a1.7,1.7,0,0,0-.7.78,1.48,1.48,0,0,0,2,2,1.66,1.66,0,0,0,.78-.71c.24-.45.25-.62.37-.62s.24.16.06.81a1.92,1.92,0,0,1-1,1.07,2.06,2.06,0,0,1-2.76-2.76,1.89,1.89,0,0,1,1.07-.95C101.09,145.55,101.25,145.74,101.24,145.8Z"/><path class="cls-14" d="M164.25,95.91c-.09,0-.2-.12-.41-.75a20,20,0,0,0-1.5-3.47,20.43,20.43,0,0,0-2.19-3.09c-.42-.51-.5-.66-.44-.73s.25,0,.77.4a11.55,11.55,0,0,1,2.43,3.09,11.71,11.71,0,0,1,1.39,3.69C164.39,95.72,164.34,95.89,164.25,95.91Z"/><path class="cls-14" d="M34.31,142.83c-.06.09-.84,0-3.15-3.05s-2.2-3.8-2.07-3.86.47.43,2.6,3.47S34.48,142.64,34.31,142.83Z"/><path class="cls-6" d="M67.15,224.26c0,.07.06.19-.19.42a2.55,2.55,0,0,1-1.86.51,2.48,2.48,0,0,1-1.75-.8c-.21-.27-.19-.39-.12-.44s.17,0,.42.08a3.53,3.53,0,0,0,1.5.51,3.78,3.78,0,0,0,1.57-.26C67,224.18,67.09,224.19,67.15,224.26Z"/><path class="cls-6" d="M95.07,223.9c.08,0,.13.13.05.41a1.57,1.57,0,0,1-1.34,1.08,3.18,3.18,0,0,1-1.63-.11c-.26-.1-.31-.2-.29-.28s.09-.16.36-.18.73,0,1.44-.08a1.54,1.54,0,0,0,1.06-.66C94.88,223.89,95,223.86,95.07,223.9Z"/><path class="cls-1" d="M335.62,287c0,3-33.66,5.35-75.18,5.35s-75.18-2.39-75.18-5.35,33.66-5.35,75.18-5.35S335.62,284,335.62,287Z"/><path class="cls-16" d="M270.88,153.32c-27.85,0-29.83-23.25-29.83-51.94s2-51.94,29.83-51.94,31.38,23.26,31.38,51.94S298.73,153.32,270.88,153.32Z"/><path class="cls-17" d="M270.88,49.44c-27.85,0-29.83,23.26-29.83,51.94s2,51.94,29.83,51.94,31.38-23.25,31.38-51.94S298.73,49.44,270.88,49.44Zm.06,100.31c-25.94,0-27.78-21.65-27.78-48.37S245,53,270.94,53s29.22,21.66,29.22,48.37S296.87,149.75,270.94,149.75Z"/><path class="cls-8" d="M247.9,157.78l19.53,1.73c0,6.45.44,13.68.09,22.73-.72,18.79-.87,41.66-1.49,60.53-.41,12.69-.08,24.61.35,31.66l-7.91-.64C255.47,249,247.21,185.44,247.9,157.78Z"/><path class="cls-8" d="M302.51,273.5h-8.73S262,160,263.58,160l24.33-.5C287.91,163.22,302.51,273.5,302.51,273.5Z"/><path class="cls-3" d="M244.65,158.23l25.81,1.7V160l-8.8.25c-.56,0,3,13.74,7.87,31.64-.34,7.84-3.78,65.6-4.15,73.82,0,0,1.45-3-9.76-6.22C253.38,237.4,244.31,171.82,244.65,158.23Z"/><path class="cls-3" d="M247.9,157.78c0-8.73,9.26-15.81,20.69-15.81s20.68,7.08,20.68,15.81a11.72,11.72,0,0,1-.28,2.45c.45,4.81,10.05,81,13.52,106.64a35.44,35.44,0,0,1-11.85,0c-1.15-4.13-16.74-58.91-17.88-63.07s-2.22-8.07-3.25-11.87c-1.93-7.06-3.64-13.46-5-18.64C255.06,171.86,247.9,165.46,247.9,157.78Z"/><path class="cls-18" d="M259,159.51c12.91,2.16,25.09-1.55,30.66-3.67l-.28,3.79a1.68,1.68,0,0,1-1.17,1.47c-5.78,1.76-33.11,9.27-44.22-3a1.61,1.61,0,0,1-.42-1.07c0-2.18-.12-4.44-.2-6.74A24.57,24.57,0,0,0,259,159.51Z"/><path class="cls-7" d="M213.62,96.42l1.23,3.78a15.14,15.14,0,0,1,1.25,2.92,53.87,53.87,0,0,0,7.42,4.83l-6.35,7.34c-2-1.42-3.49-2.65-4.53-3.55l-1.15-.42a1.33,1.33,0,0,1-.4,0l-5.67-2.15h0l-7.62-2.9c-.94-.32-1.73-.8-1.42-1.74l.06-.17c.31-.94,1.22-.8,2.16-.49l3.34,1-6.23-2.38c-.94-.31-1.74-.79-1.42-1.73l.05-.18c.32-.94,1.22-.79,2.16-.48l.67.19-3.37-1.49c-.92-.37-1.69-.89-1.33-1.82l.07-.17c.36-.92,1.26-.73,2.18-.36L199.45,98l-3.23-1.85c-.88-.46-1.58-1.06-1.13-1.94l.09-.16c.45-.88,1.33-.6,2.21-.14l11.37,5.25a12.12,12.12,0,0,0,2.09,0c-.11-1-.41-2.29-.66-3.66-.82-4.42,1.9-4,1.9-4Z"/><path class="cls-2" d="M292.86,101.42l-2,38.29-1.21,16.13c-5.57,2.12-17.75,5.83-30.66,3.67a24.57,24.57,0,0,1-15.63-9.19C242.92,136,240,115.49,240,98.23l-1.25-24.84a43.5,43.5,0,0,1,19.51-12.17l5.92,7.7-1.42,2a9,9,0,0,0,1.42.39c4.26.8,13-1.66,14.22-6.28a12.75,12.75,0,0,0,.35-4.81c5.51,3.54,12,6.62,16.61,10.39h0Z"/><path class="cls-18" d="M278.38,65.07c-1.23,4.62-10,7.08-14.22,6.28s-6.59-4.12-6.47-7.45a10.4,10.4,0,0,1,.55-2.68c1.76-1,3.46-1.95,5-3s5.73-2,6.29-1.74c.57-.25,5,.85,6.6,2,.82.6,1.68,1.18,2.57,1.75A12.75,12.75,0,0,1,278.38,65.07Z"/><path class="cls-7" d="M274.78,62.47c-.48,5-14,8.37-13.65.4L262.52,47l12.76-.67C274.19,53.16,273.86,59,274.78,62.47Z"/><path class="cls-7" d="M260.36,57s-1.77-14.82-.29-19.05l2.58-17.42c1.48-4.23,5.05-7.92,9.09-7.24l9.89,1.7c4,.69,6.93,5.77,5.45,10L277.5,49.49C276,53.72,270.74,58.63,260.36,57Z"/><path class="cls-8" d="M260.23,56.94l-.27,0c-5.82-1-8.83-7.46-7.83-13.29l2.8-26.47a2.76,2.76,0,0,1,3.17-2.25l19.75,3.38c1.49.26,4.32,2,4.07,3.5l-5.34,22.69C275.21,52.5,268.25,58.31,260.23,56.94Z"/><path class="cls-9" d="M255.35,33.54c-.35,1.5.13,2.89,1.06,3.11s2-.82,2.33-2.32-.12-2.89-1.06-3.11S255.7,32,255.35,33.54Z"/><path class="cls-9" d="M268.77,36.41c-.43,1.48,0,2.89.9,3.16s2-.72,2.45-2.2,0-2.89-.91-3.16S269.19,34.93,268.77,36.41Z"/><path class="cls-3" d="M255.94,27.57a15.29,15.29,0,0,1,4,.77,1,1,0,0,0,1.27-.72h0a1,1,0,0,0-.57-1.16,12.55,12.55,0,0,0-4.71-.89,1,1,0,0,0-.95.88h0A1,1,0,0,0,255.94,27.57Z"/><path class="cls-3" d="M269.44,30.81a15.86,15.86,0,0,1,4.44,1.08,1,1,0,0,0,1.32-.66l0-.13a1,1,0,0,0-.53-1.19,13.35,13.35,0,0,0-5.1-1.23,1,1,0,0,0-1,.83l0,.13A1,1,0,0,0,269.44,30.81Z"/><path class="cls-8" d="M272.68,40.3s-.3-1.43-2.65-2.17a6.29,6.29,0,0,0-4.72.76l3.16,2.18Z"/><path class="cls-8" d="M260.62,37.38s-.3-1.42-2.65-2.17a6.27,6.27,0,0,0-4.72.77l3.16,2.17Z"/><path class="cls-3" d="M279.45,24s-10.35.27-17.24-1.21-8.44-3.08-8.44-3.08,4-14.08,7.82-15.95c0,0,4,7.37,12.56,8.78s12.07,1.71,14.7,7.9S286,34.33,282.5,40.13l-2.38-.64S280.25,35.68,279.45,24Z"/><path class="cls-7" d="M259.25,37.42a7.2,7.2,0,0,0-1.8,2.73c-.5,1.54,3.42,2.69,3.42,2.69a10.37,10.37,0,0,1-1.95-2.28C258.54,39.68,259.25,37.42,259.25,37.42Z"/><path class="cls-7" d="M284.36,44.8c-1.83,2.56-4.63,3.69-6.25,2.52a2,2,0,0,1-.43-.39c-1.15-1.36-.86-4,.79-6.34,1.82-2.56,4.62-3.68,6.25-2.52S286.18,42.24,284.36,44.8Z"/><path class="cls-6" d="M298.42,253.91c-.05,0-.13-.29-.3-1.2s-.43-2.46-.82-5c-.78-5-2.07-13.73-4.25-28.87S289.65,195,289,190c-.33-2.49-.51-4-.61-5s-.09-1.23,0-1.23.13.29.3,1.2.43,2.46.82,5c.77,5,2.07,13.73,4.24,28.87s3.4,23.91,4.06,28.9c.33,2.49.52,4,.61,5A3.84,3.84,0,0,1,298.42,253.91Z"/><path class="cls-6" d="M264.92,253.91c-.18,0-.14-4,1-29.38s1.51-29.35,1.69-29.34.15,4-1,29.37S265.1,253.92,264.92,253.91Z"/><path class="cls-6" d="M265.92,181.37c0,.08-.3.26-1.71.41a9.87,9.87,0,0,1-1.28,0c-.25,0-.52,0-.82-.07l-.46-.09a.92.92,0,0,1-.52-.48c-.55-1.41-.47-3.06-.46-5.2.15-4.24.48-6.67.65-8s.31-1.7.4-1.69.14.35.07,1.74-.31,3.82-.46,8a15.89,15.89,0,0,0,.34,4.9.58.58,0,0,0,.13.18c.14,0,.27.07.41.09a5.29,5.29,0,0,0,.76.1c.47,0,.88,0,1.22,0C265.56,181.29,265.9,181.27,265.92,181.37Z"/><path class="cls-6" d="M268.07,186.55c-.08,0-.27-.29-.65-1.71a56.28,56.28,0,0,1-1.28-8.36c-.4-4.41-.44-7-.43-8.43s.12-1.82.21-1.81.15,1.39.88,10.18c.42,4.39.84,6.9,1.08,8.33S268.16,186.52,268.07,186.55Z"/><path class="cls-3" d="M240,286.74H267.3c.22,0,.39-.43.35-.9l-.25-2.66H239.47l0,2.45C239.44,286.24,239.67,286.74,240,286.74Z"/><path class="cls-2" d="M246.59,277.92l.45-.09c11.35-1.21,4.23-20.86,7.4-22.7a3.51,3.51,0,0,1,1.39,0c2.95,1.65,6.32,2.51,10.1.33.53,0,1.4.29,1.39.93l.14,27.15-28,.12C239,278.32,242.66,277.92,246.59,277.92Z"/><path class="cls-18" d="M246.59,277.92l.45-.09v5.79l-7.54,0C239,278.32,242.66,277.92,246.59,277.92Z"/><path class="cls-18" d="M267.42,274.79l0,8.75-8.75,0v0A8.74,8.74,0,0,1,267.42,274.79Z"/><rect class="cls-4" x="253.18" y="258.5" width="5.29" height="3.98" transform="translate(511.65 520.98) rotate(180)"/><rect class="cls-4" x="253.18" y="266.4" width="4.87" height="0.96" transform="translate(511.23 533.76) rotate(180)"/><rect class="cls-4" x="253.18" y="268.41" width="4.87" height="0.96" transform="translate(511.23 537.78) rotate(180)"/><polygon class="cls-4" points="253.18 271.39 258.05 271.39 258.08 270.43 253.21 270.43 253.18 271.39"/><path class="cls-2" d="M291.92,274.52,287,257a1,1,0,0,1,1-1l13.19-.55a1,1,0,0,1,.89.91c.1.77,1.42,17.78,1.57,18.9a6.61,6.61,0,0,1,1.83,4.72v3.59H289.21v-3.59A6,6,0,0,1,291.92,274.52Z"/><path class="cls-3" d="M290.94,287h12.77a1.73,1.73,0,0,0,1.73-1.73v-1.85H289.2v1.86A1.73,1.73,0,0,0,290.94,287Z"/><polygon class="cls-4" points="290.97 262.48 300.34 262.48 299.44 258.5 290.08 258.5 290.97 262.48"/><rect class="cls-4" x="291.67" y="266.4" width="8.53" height="0.96" transform="translate(591.87 533.76) rotate(180)"/><rect class="cls-4" x="292.23" y="268.41" width="8.53" height="0.96" transform="translate(592.99 537.78) rotate(180)"/><polygon class="cls-4" points="293 271.39 301.53 271.39 301.58 270.43 293.05 270.43 293 271.39"/><path class="cls-18" d="M291.92,274.52h11.67c1.1,1.05,1.83,3.44,1.84,5.39v3.59H289.21v-3.59A6,6,0,0,1,291.92,274.52Z"/><path class="cls-4" d="M287.1,7.85l.11,0h-2l.12,0-1.68-1,.08.09-1-1.68,0,.12.39-2.95,0,.06L287.41.74l-.05,0V8.09h.07l-2.94-.39c-.48-1.13-1-2.27-1.43-3.4.32-.56.65-1.12,1-1.68l-.12.11,1.68-1a2.76,2.76,0,0,1,3.47,3.51c-.33.56-.66,1.12-1,1.68l.12-.1L285.5,7.93a1.62,1.62,0,0,1,.44,0,3.83,3.83,0,0,0,3.82-3.82A3.91,3.91,0,0,0,285.94.29a4.19,4.19,0,0,0-4.27,5.27,5.11,5.11,0,0,0,4.12,3.64,4.18,4.18,0,0,0,4.8-4.29,4.47,4.47,0,0,0-1.4-3.18,4.25,4.25,0,0,0-3.86-1,3.84,3.84,0,0,0-2.8,3.69,4.48,4.48,0,0,0,.52,1.92,4,4,0,0,0,2.28,1.76l.05,0a3.81,3.81,0,0,0,4.31-1.76,4.06,4.06,0,0,0-.59-4.8,4,4,0,0,0-4-1.06,3.87,3.87,0,0,0-2.67,4.69,3.87,3.87,0,0,0,4.7,2.67Z"/><path class="cls-2" d="M254.67,14.43s.46-10,9.58-13.35,19.68,2,23.4,4.73c3.21,2.39,11.83,14.35,3.72,23.08C291.37,28.89,270.44,15,254.67,14.43Z"/><path class="cls-4" d="M293.43,27.05v.15a3.94,3.94,0,0,0-3.68-2.81l-2.33-.05,3.68,2.8c-1-3.93-5.53-6.85-9.15-8.1-.32-.11-3-.64-1.25.09A14.13,14.13,0,0,1,279,17.84a40.23,40.23,0,0,0-4.27-2.52c-.92-.42-2.13-.09-3-.52-.32-.17-.85-1.48-1.49-1.84a33,33,0,0,0-6.78-2.7C259.49,9.17,253.77,9,250.69,12c-3.51,3.45,1.89,8.85,5.41,5.4.76-.75,7.45,1,8.62,1.61,1.53.79,2.45,2.26,4,2.94.86.38,2.49.51,3,.75,2.16,1.06,3.83,3,6.14,3.73.9.27,2.31.12,3,.39-2-.76,3.09,3.12,2.9,2.35A3.89,3.89,0,0,0,287.42,32l2.33.05-3.69-2.8a6.51,6.51,0,0,0,2,3.22c3.63,3.3,9.05-2.09,5.4-5.4Z"/><path class="cls-6" d="M263.08,3.24c0-.27.51-.53,2.86-.76a13.27,13.27,0,0,1,2.12,0,20,20,0,0,1,2.9.21l1.78.25c.62.12,1.27.29,2,.46a16,16,0,0,1,2.19.63,22.82,22.82,0,0,1,2.41.87,31.31,31.31,0,0,1,11.28,7.58c1.56,1.76,1.69,2.42,1.48,2.57s-.71-.12-2.45-1.55a42.83,42.83,0,0,0-11.07-6.76,42.23,42.23,0,0,0-12.63-2.84C263.67,3.75,263.1,3.51,263.08,3.24Z"/><path class="cls-6" d="M259.42,7.9c0-.28.65-.47,3.31-.4.67,0,1.45.15,2.38.27l1.51.22,1.71.39a44,44,0,0,1,9.16,3.28,47.38,47.38,0,0,1,12.68,8.6c1.87,1.87,2.1,2.55,1.91,2.73s-.77-.11-2.83-1.67a73.18,73.18,0,0,0-12.61-7.87,52.12,52.12,0,0,0-8.76-3.3l-1.64-.46-1.43-.3c-.88-.18-1.62-.39-2.26-.5C260,8.48,259.41,8.17,259.42,7.9Z"/><path class="cls-6" d="M267.92,6.19c0-.09.37-.11,1.85.09A34.24,34.24,0,0,1,278,8.81a35.32,35.32,0,0,1,7.46,4.33c1.18.92,1.38,1.24,1.33,1.3s-.37-.11-1.6-.92a49.34,49.34,0,0,0-7.46-4.1,46.46,46.46,0,0,0-8.08-2.68C268.24,6.42,267.9,6.28,267.92,6.19Z"/><path class="cls-2" d="M238.73,73.39c-10.28,10.56-10.89,36.25-10.89,36.25L219.43,104s-4.11,5.15-4.36,11c0,0,10.2,13.73,19.72,13S247.9,98.23,247.9,98.23Z"/><path class="cls-2" d="M295.35,70.65c10.65,7.73,49.13,53.24-15.67,67L277,127.92s27.28-11.41,19.82-23.53c-4.86-7.89-18-9.47-18-9.47Z"/><path class="cls-3" d="M256,53.09c-2.42-1-3.8,8-2.73,9.28S258.43,68,266.94,68,280.6,61,279.68,59.6s-4.45-5.55-5.73-5.23S266.06,57.25,256,53.09Z"/><path class="cls-3" d="M279.85,30.57a42.29,42.29,0,0,1-5.31,14.13,8.89,8.89,0,0,1-2.09,2.47,3.68,3.68,0,0,1-3.05.77c-1.22-.3-2.09-1.37-3.19-2-1.81-1-4-.7-6-1.25-1.25-.35-2.52-1.06-3.78-.73a6,6,0,0,1-1.79.49c-1-.08-1.57-1.21-1.73-2.21s.39-2.48-.28-3.24l-.09.09A6.54,6.54,0,0,0,251,42.63c-.06,1.14.1,2.28.11,3.42,0,1.39-.19,2.77-.18,4.16a7.12,7.12,0,0,0,1,4,20.36,20.36,0,0,0,1.75,2c1.47,1.68,2.38,4,4.38,5a2.23,2.23,0,0,0,.79.26c1,.12,1.82-.59,2.77-.8s2.1.16,3.15,0a17.41,17.41,0,0,0,2.63-.82c.93-.25,1.9-.26,2.83-.5,2.71-.71,4.49-3.22,6-5.6a10.92,10.92,0,0,0,1.5-3.09,11.71,11.71,0,0,0,.26-2.22,38.39,38.39,0,0,1,.63-6.15,13.06,13.06,0,0,1,2.51-5.6"/><path class="cls-4" d="M256,47.47c-.12-.52-.2-1-.25-1.39a.44.44,0,0,1,.62-.47,22.49,22.49,0,0,0,2.55,1,22.38,22.38,0,0,0,5.78.34.45.45,0,0,1,.42.66,13.2,13.2,0,0,1-.94,1.46,39.13,39.13,0,0,1-5.34-.63A23.08,23.08,0,0,1,256,47.47Z"/><path class="cls-4" d="M260.37,50.17a7.93,7.93,0,0,1,2.67.16,4.73,4.73,0,0,1-3.72,1.53,2.58,2.58,0,0,1-.89-.28A3.58,3.58,0,0,1,260.37,50.17Z"/><path class="cls-4" d="M256,47.47a23.08,23.08,0,0,0,2.84,1,39.13,39.13,0,0,0,5.34.63A10.06,10.06,0,0,1,263,50.33a7.93,7.93,0,0,0-2.67-.16,3.58,3.58,0,0,0-1.94,1.41C257,50.88,256.33,49,256,47.47Z"/><path class="cls-3" d="M270.44,64c-.67,1.48,4.2,21.82,3,50.12s1.5,40.37,3.51,40.68,8.59-1.59,7.68-2.54-3.37-16.21-3.26-29.88,1.25-41.24-6.63-59.88Z"/><path class="cls-4" d="M275.45,155c1.12,1.11,2.72,2.1,4.29,1.16a2.35,2.35,0,0,0,1.13-1.7l.05-.36q-1,.62-.27.81a1.77,1.77,0,0,0,1.23.29,1.37,1.37,0,0,0,1.19-.68,5.19,5.19,0,0,0,.31-.86c.06-.25.28-.79.07-.62l-1.33.35c.33.05.91.63,1.19.84,1.43,1,2.8-1.35,1.38-2.37-.73-.53-1.57-1.39-2.57-1.11-1.28.35-1,1.46-1.42,2.39l1.18-.68c-.33,0-.82-.43-1.19-.5a2.15,2.15,0,0,0-1.53.25,1.81,1.81,0,0,0-.83,1s-.18.59-.07.54a5.06,5.06,0,0,1-.87-.72,1.37,1.37,0,0,0-1.94,1.94Z"/><path class="cls-3" d="M263,65.08s0,16.82-1.91,33.49c0,0-2.22,4.17-1.06,4.77s10.27-.11,10.31-2.22.28-21.5-2.18-36Z"/><path class="cls-4" d="M259.2,102.32c1,1.51,2.43,3,4.42,2.5a2.84,2.84,0,0,0,1.67-1.44c.38-.54-.16,0,.11.43s.84.55,1.22.63a1.38,1.38,0,0,0,1.34-.35,17.23,17.23,0,0,0,1.14-1.89l-.82.63.29-.13-1.05-.13a7.88,7.88,0,0,1,1.26,1.32c1.19,1.32,3.12-.63,1.94-1.93-.7-.79-1.49-2-2.69-1.92s-1.31,1.31-2,2.11l1.33-.35c-.51-.12-.89-.73-1.38-1a2.38,2.38,0,0,0-1.66-.16,2.17,2.17,0,0,0-1.13.82c-.14.16-.17.48-.37.56-.39.15-1-.8-1.25-1.13-.95-1.47-3.33-.1-2.36,1.38Z"/><path class="cls-19" d="M292,118.89c-.18,0-.28-1,0-7s.51-7,.7-7,.28,1,0,7S292.15,118.9,292,118.89Z"/><path class="cls-19" d="M282.42,125.29c-.06-.1.57-.46,3.08-2a58.53,58.53,0,0,0,5.13-3.68,34.9,34.9,0,0,0,3.46-3.27,15.41,15.41,0,0,0,3.16-5,7.4,7.4,0,0,0-.15-5.69,11.15,11.15,0,0,0-2.8-3.71,26.09,26.09,0,0,0-5.17-3.54c-2.63-1.36-3.32-1.58-3.28-1.69s.2,0,.73.14a18.84,18.84,0,0,1,2.76,1.14,23.58,23.58,0,0,1,5.37,3.5,11.92,11.92,0,0,1,3,3.89,8,8,0,0,1,.17,6.18,15.64,15.64,0,0,1-3.3,5.23A32.5,32.5,0,0,1,291,120a46.46,46.46,0,0,1-5.28,3.61c-1.29.75-2.12,1.17-2.62,1.4S282.44,125.33,282.42,125.29Z"/><path class="cls-19" d="M303.39,128.88c.05.07-.2.33-1.41,1.11a48.21,48.21,0,0,1-7.53,3.6,68.65,68.65,0,0,1-7.92,2.59c-1.4.35-1.75.35-1.78.26s.29-.25,1.65-.7,3.76-1.21,7.81-2.77a80,80,0,0,0,7.54-3.39C303,128.91,303.34,128.8,303.39,128.88Z"/><path class="cls-19" d="M286.45,141.57c-.17.06-.44-.21-1-1.52a46.54,46.54,0,0,1-2.28-8,46.4,46.4,0,0,1-1.07-8.2c0-1.43.14-1.79.32-1.8s.35.32.61,1.71.59,3.84,1.44,8,1.57,6.55,1.87,7.93S286.62,141.51,286.45,141.57Z"/><path class="cls-19" d="M265.91,159.38c-.05,0-.1-.22-.19-.9s-.18-1.83-.33-3.68c-.23-3.71-.63-10.24-.59-21.52s.44-17.81.68-21.51c.12-1.85.23-3,.31-3.68s.14-.91.19-.9.1.9,0,4.6-.42,10.23-.48,21.49.29,17.79.4,21.49c.08,1.85.12,3,.12,3.69S266,159.38,265.91,159.38Z"/><path class="cls-19" d="M229.53,111c-.11.15-.76-.12-4.29-2.59s-4-3-3.9-3.13.74.12,4.28,2.59S229.63,110.82,229.53,111Z"/><path class="cls-19" d="M296.69,128.88s.28-.26,1.22-.83c.47-.3,1.13-.65,1.94-1.18s1.84-1.19,3-2.14a24,24,0,0,0,7.76-9.8,21.23,21.23,0,0,0,1.34-9.37,35.21,35.21,0,0,0-3.19-11.67,58.2,58.2,0,0,0-12.49-17.77A78.11,78.11,0,0,0,286.44,68c-2.45-1.71-4.05-2.65-5-3.23a6.26,6.26,0,0,1-1.23-.8s.37.07,1.36.58a52.12,52.12,0,0,1,5.14,3.07,71.92,71.92,0,0,1,10,8.07,57.87,57.87,0,0,1,12.68,17.93,35.72,35.72,0,0,1,3.23,11.9,21.83,21.83,0,0,1-1.42,9.64,24,24,0,0,1-8.05,9.94c-1.18.94-2.26,1.53-3.07,2.08s-1.52.83-2,1.09C297.05,128.78,296.72,128.92,296.69,128.88Z"/><path class="cls-19" d="M253.79,63c0,.09-.74.53-4,2.09a26.3,26.3,0,0,0-2.81,1.7l-1.76,1.11-1.85,1.53a35.19,35.19,0,0,0-8.48,10.16A46.55,46.55,0,0,0,230.05,92a55.33,55.33,0,0,0-1.29,7.67c-.33,3.64-.28,4.52-.4,4.52s-.1-.21-.14-.9a33,33,0,0,1,.07-3.66,49,49,0,0,1,1.17-7.77,45.84,45.84,0,0,1,4.82-12.58A35,35,0,0,1,243,68.93l1.9-1.53,1.81-1.11a26.11,26.11,0,0,1,2.88-1.65c1.69-.73,2.75-1.17,3.38-1.41S253.77,62.93,253.79,63Z"/><path class="cls-6" d="M272.74,52.36c-.16-.1-.15-.38.74-1.68s1.14-1.42,1.29-1.31.12.4-.74,1.68S272.9,52.45,272.74,52.36Z"/><path class="cls-6" d="M268.1,58.53c-.12-.11-.09-.46,1.22-1.71s1.69-1.21,1.79-1.07-.05.39-1.35,1.56S268.25,58.66,268.1,58.53Z"/><path class="cls-6" d="M264.56,56.44c-.12-.12-.05-.47,1.31-1.61s1.74-1.1,1.83-1-.06.4-1.41,1.47S264.7,56.58,264.56,56.44Z"/><path class="cls-6" d="M266.65,50.52c-.16-.08-.25-.23,0-.73s.43-.51.59-.42.25.22,0,.72S266.81,50.6,266.65,50.52Z"/><path class="cls-6" d="M253.65,48.49c-.16,0-.4,0-.37-.72s.37-.71.51-.64.22.21.15.71S253.84,48.45,253.65,48.49Z"/><path class="cls-6" d="M251.92,45.6c-.19,0-.34-.08-.38-.75s.1-.78.28-.79.33.08.38.75S252.1,45.59,251.92,45.6Z"/><path class="cls-6" d="M253.17,53.51c-.17.07-.37,0-.74-.89s-.29-1.07-.12-1.14.36,0,.73.89S253.33,53.44,253.17,53.51Z"/><path class="cls-6" d="M258.73,59.71c-.15.09-.44,0-1.46-1.4s-1.08-1.68-.94-1.8.42,0,1.46,1.4S258.88,59.61,258.73,59.71Z"/><path class="cls-6" d="M256.62,53.71c-.16.08-.35,0-.68-.63s-.24-.84-.08-.92.35,0,.68.63S256.79,53.63,256.62,53.71Z"/><path class="cls-6" d="M261.07,58c-.16.08-.36,0-.75-.67s-.34-.89-.18-1,.34-.06.75.67S261.24,57.87,261.07,58Z"/><path class="cls-6" d="M261.73,54c-.12-.14-.12-.33.46-.83s.76-.48.88-.34.13.33-.45.84S261.85,54.13,261.73,54Z"/><path class="cls-6" d="M265.18,59.72c-.14.11-.37.06-1.05-.84s-.67-1.13-.53-1.24.37-.06,1.06.84S265.33,59.61,265.18,59.72Z"/><path class="cls-6" d="M276.92,47c-.18,0-.33-.21-.33-1.57s.15-1.57.33-1.57.33.22.33,1.57S277.1,47,276.92,47Z"/><path class="cls-6" d="M278.15,39.33c-.17-.08-.29-.16-.25-.25s.19,0,.35.05.29.16.24.25S278.31,39.41,278.15,39.33Z"/><path class="cls-6" d="M277.53,40.84c-.15-.1-.24-.22-.11-.4s.27-.11.41,0,.25.23.12.4S277.68,41,277.53,40.84Z"/><path class="cls-6" d="M253.87,244.13c-.19,0-1-5.49-4.87-40.41s-4.4-40.46-4.22-40.48.95,5.49,4.87,40.41S254.05,244.11,253.87,244.13Z"/><path class="cls-18" d="M263.45,111.88a2.47,2.47,0,1,1-2.47-2.46A2.47,2.47,0,0,1,263.45,111.88Z"/><path class="cls-19" d="M261,109.42c0,.12-.22.1-.9.42A2.39,2.39,0,0,0,259,111a2.17,2.17,0,0,0,2.87,2.88,2.36,2.36,0,0,0,1.12-1.06c.33-.67.31-.91.43-.9s.27.22,0,1.09a2.57,2.57,0,0,1-1.29,1.42,2.76,2.76,0,0,1-3.68-3.69,2.61,2.61,0,0,1,1.41-1.29C260.77,109.15,261,109.36,261,109.42Z"/><path class="cls-18" d="M262.85,137.64a2.47,2.47,0,1,1-2.47-2.47A2.48,2.48,0,0,1,262.85,137.64Z"/><path class="cls-18" d="M262.48,125.29a2.47,2.47,0,1,1-2.46-2.46A2.47,2.47,0,0,1,262.48,125.29Z"/><path class="cls-18" d="M263.45,151.11a2.47,2.47,0,1,1-2.47-2.46A2.48,2.48,0,0,1,263.45,151.11Z"/><path class="cls-6" d="M281.94,145.7c-.05,0-.16-.29-.43-1.25a44.66,44.66,0,0,1-1-5.27c-.37-2.67-.69-6.37-.88-11.45s-.21-11.53-.2-19.68-.57-14.57-1.08-19.61-1.08-8.7-1.58-11.33c-1-5.27-1.65-6.41-1.51-6.46s.19.26.58,1.19A39.71,39.71,0,0,1,277.25,77c.56,2.64,1.16,6.3,1.72,11.35A190.87,190.87,0,0,1,280.11,108c0,8.17,0,14.6.15,19.67s.43,8.75.74,11.41C281.62,144.44,282.09,145.67,281.94,145.7Z"/><path class="cls-6" d="M277,144.38c-.05,0-.13-.15-.28-.66a22.49,22.49,0,0,1-.67-2.79c-.56-2.82-1.21-7.88-1.14-16.61s.2-13.75.24-16.62,0-3.55.14-3.56.21.68.33,3.55.05,7.93-.05,16.63a102.25,102.25,0,0,0,.94,16.54C276.94,143.67,277.1,144.35,277,144.38Z"/><path class="cls-6" d="M289.48,173.49c0,.09-.25.2-1.45.37a11.05,11.05,0,0,1-2.58,0,9.26,9.26,0,0,1-4.21-1.5,8.72,8.72,0,0,1-2.87-3.42,10.32,10.32,0,0,1-.8-2.47c-.2-1.2-.09-1.5,0-1.51s.15.28.46,1.41a12,12,0,0,0,.89,2.3,8.63,8.63,0,0,0,2.7,3.15,9.26,9.26,0,0,0,3.9,1.44,15.77,15.77,0,0,0,2.48.11C289.17,173.34,289.47,173.4,289.48,173.49Z"/><path class="cls-6" d="M288.72,162.84c0,.09-.7.36-3.78,1.24-1.54.48-3.7,1-6.67,1.59a76.78,76.78,0,0,1-11.68,1.39c-9.83.38-15.4-1.83-18.22-3.29a13.86,13.86,0,0,1-2.65-1.83c-.44-.42-.54-.59-.5-.62s.56.56,3.37,2c2.81,1.32,8.26,3.42,18,3.05a81.48,81.48,0,0,0,11.6-1.33c3-.59,5.12-1,6.66-1.44C287.92,162.87,288.69,162.75,288.72,162.84Z"/><path class="cls-19" d="M260,122.83c0,.12-.23.09-.9.42a2.35,2.35,0,0,0-1.05,1.12,2.17,2.17,0,0,0,2.87,2.87,2.35,2.35,0,0,0,1.12-1c.33-.67.3-.91.42-.9s.28.22,0,1.09a2.65,2.65,0,0,1-1.29,1.42,2.76,2.76,0,0,1-3.69-3.69,2.65,2.65,0,0,1,1.42-1.29C259.8,122.55,260,122.77,260,122.83Z"/><path class="cls-19" d="M260.38,135.17c0,.12-.22.1-.9.43a2.35,2.35,0,0,0-1.05,1.12,2.17,2.17,0,0,0,2.87,2.87,2.35,2.35,0,0,0,1.12-1.05c.33-.68.31-.91.43-.9s.27.21,0,1.09a2.57,2.57,0,0,1-1.29,1.41,2.75,2.75,0,0,1-3.68-3.68,2.61,2.61,0,0,1,1.41-1.29C260.17,134.9,260.39,135.12,260.38,135.17Z"/><path class="cls-19" d="M261,148.65c0,.12-.22.09-.9.42a2.39,2.39,0,0,0-1.05,1.12,2.17,2.17,0,0,0,2.87,2.87A2.3,2.3,0,0,0,263,152c.33-.67.31-.91.43-.9s.27.22,0,1.09a2.57,2.57,0,0,1-1.29,1.42,2.76,2.76,0,0,1-3.68-3.69,2.61,2.61,0,0,1,1.41-1.29C260.77,148.37,261,148.59,261,148.65Z"/><path class="cls-20" d="M251.94,62.37c.47.31.47,1.21-.59,4-.21.72-.48,1.57-.83,2.55s-.58,2.2-1,3.54a78.14,78.14,0,0,0-1.68,10.85c-.37,4.57-.36,8.23-.33,11.1s.08,5,.06,6.53c0,3.08-.34,3.87-.89,4s-1.19-.57-1.9-3.65a48.74,48.74,0,0,1-.92-6.67,70.66,70.66,0,0,1,0-11.6A56.72,56.72,0,0,1,246,71.44c.53-1.44,1-2.68,1.43-3.72s1-1.88,1.37-2.59C250.66,62.42,251.5,62.08,251.94,62.37Z"/><path class="cls-20" d="M286.48,64c.53.1.91.89.81,3.75.07,2.86-.52,7.86.67,16.33a65.88,65.88,0,0,0,2.33,10c.81,2.53,1.47,4.36,1.95,5.7.95,2.68,1,3.45.51,3.78s-1.34,0-3-2.52a31.76,31.76,0,0,1-2.89-5.74A48.8,48.8,0,0,1,284,84.65c-1.27-9.1-.18-14.43.48-17.31C285.34,64.45,285.94,63.86,286.48,64Z"/><path class="cls-21" d="M296.77,71c-.09,0-.34-.4-1.11-2.25a28.14,28.14,0,0,0-6.54-9.42,22.3,22.3,0,0,0-6.07-4A25.38,25.38,0,0,0,279,54c-1.94-.44-2.43-.46-2.43-.57s.51-.22,2.53.12a20.71,20.71,0,0,1,4.16,1.26,22,22,0,0,1,6.27,4,25.53,25.53,0,0,1,6.52,9.73C296.76,70.46,296.86,70.94,296.77,71Z"/><path class="cls-21" d="M296.29,133.16c.08,0,.1.22-.08,1a17.21,17.21,0,0,1-1.86,4,22.24,22.24,0,0,1-2.61,3.53c-.53.54-.72.62-.79.56s0-.25.42-.86,1.23-1.65,2.41-3.58a37.68,37.68,0,0,0,2-3.81C296.06,133.28,296.2,133.13,296.29,133.16Z"/><path class="cls-6" d="M262.59,62.49c0,.09-.2.09-.84,0a13.74,13.74,0,0,0-1.39,0,11,11,0,0,1-2.51-.07,4.16,4.16,0,0,1-2.26-1.29,7.27,7.27,0,0,1-.88-1.18c-.34-.58-.36-.76-.28-.81s.23,0,.66.54c.22.25.5.6.93,1a3.85,3.85,0,0,0,2,1.07,13.66,13.66,0,0,0,2.37.11,6.61,6.61,0,0,1,1.46.13C262.49,62.24,262.61,62.41,262.59,62.49Z"/><path class="cls-6" d="M267.45,62.44c0-.07.14-.25.91-.33a8.81,8.81,0,0,0,4-1,8.63,8.63,0,0,0,3-2.77c.41-.6.53-.75.62-.7s.11.24-.22.93a7.18,7.18,0,0,1-3.11,3.12,7.36,7.36,0,0,1-4.3.9C267.65,62.54,267.48,62.54,267.45,62.44Z"/><path class="cls-6" d="M270.4,64.36c0,.06-.1.27-.86.38a3.34,3.34,0,0,1-1.59-.25,1.5,1.5,0,0,0-1-.1l-1.44.22a19.63,19.63,0,0,1-2.63.31,3.91,3.91,0,0,1-1.58-.27c-.71-.33-.75-.58-.71-.63.16-.3.51.83,4.82-.06l1.45-.21a2,2,0,0,1,1.27.17,3.57,3.57,0,0,0,1.37.35C270.18,64.29,270.37,64.25,270.4,64.36Z"/><path class="cls-6" d="M273.31,65.11c-.07,0-.08-.2.18-.65a8.18,8.18,0,0,1,2-2.21l1.43-1.11a3.14,3.14,0,0,0,.62-.74c.22-.4.26-.52.36-.51s.22.14.07.69a2.5,2.5,0,0,1-.62,1c-.36.32-.85.73-1.45,1.2a18.5,18.5,0,0,0-2.05,2C273.52,65.1,273.39,65.16,273.31,65.11Z"/><path class="cls-6" d="M216.41,115.55c-.09,0-.14-.21,0-1a21.47,21.47,0,0,1,3.27-8.38c.47-.64.62-.72.71-.69s0,.26-.31.93-1,1.86-1.86,4a40.14,40.14,0,0,0-1.35,4.22C216.62,115.4,216.5,115.57,216.41,115.55Z"/><path class="cls-6" d="M260.65,221.31c.05.07,0,.19-.27.39a3.68,3.68,0,0,1-3.9-.26c-.26-.23-.27-.35-.22-.42s.17-.09.46,0a5,5,0,0,0,3.47.23C260.5,221.2,260.61,221.23,260.65,221.31Z"/><path class="cls-6" d="M288.73,222c0,.08,0,.19-.22.4a3.91,3.91,0,0,1-3.63.38c-.29-.15-.32-.26-.29-.35s.13-.13.42-.1a6.26,6.26,0,0,0,3.28-.34C288.57,221.88,288.68,221.91,288.73,222Z"/></g></g></svg>