<svg xmlns="http://www.w3.org/2000/svg" viewBox="0 0 293 284.1"><defs><style>.cls-1{fill:#5090dd;}.cls-2{fill:#0f3456;}.cls-3{fill:#1e4b7c;}.cls-4{fill:#242628;}.cls-5{fill:#3a2003;}.cls-6{fill:#ea5353;}.cls-7{fill:#9e1b40;}.cls-8{fill:#fff;}.cls-9{fill:#ffc19f;}.cls-10{fill:#5ba833;}.cls-11,.cls-23{fill:none;stroke-miterlimit:10;}.cls-11{stroke:#6d4106;}.cls-12{fill:#2c4e56;}.cls-13{fill:#5eb338;}.cls-14{fill:#e5a55e;}.cls-15{fill:#f4a882;}.cls-16{fill:#141413;}.cls-17{fill:#1a1e21;}.cls-18{fill:#d63c3c;}.cls-19{fill:#e4eef4;}.cls-20{fill:#6b352d;}.cls-21{fill:#f2b151;}.cls-22{fill:#7c2d31;}.cls-23{stroke:#6b352d;}.cls-24{fill:#ffcd7d;}.cls-25{fill:#5b1b22;}.cls-26{fill:#991c40;}</style></defs><g id="图层_2" data-name="图层 2"><g id="OBJECTS"><path class="cls-1" d="M.13,278.76c0,2.95,29.08,5.34,65,5.34s65-2.39,65-5.34-29.08-5.35-65-5.35S.13,275.8.13,278.76Z"/><path class="cls-2" d="M37.05,95.34c0,42,13.69,45.9,30.58,45.9s30.59-3.93,30.59-45.9S84.53,58.67,67.63,58.67,37.05,53.37,37.05,95.34Z"/><path class="cls-3" d="M42.44,96.74c0,42,13.7,45.89,30.59,45.89s30.59-3.92,30.59-45.89S89.92,60.07,73,60.07,42.44,54.77,42.44,96.74Z"/><path class="cls-4" d="M53.63,181.93c-.94,1.44,2.95,79.84,2.95,79.84s8.54,1.53,8.54,0,6.47-79.84,6.47-79.84Z"/><path class="cls-4" d="M76.57,180.31c-.94,1.44,10.35,81.46,10.35,81.46s8.54,1.53,8.54,0,.78-76.69.78-76.69Z"/><path class="cls-5" d="M109,276.7H84.83c-.2,0-.35-.38-.32-.79l.22-2.36h24.68l0,2.17C109.43,276.26,109.23,276.7,109,276.7Z"/><path class="cls-6" d="M103.11,268.91l-.4-.08c-10-1.07-4.79-18.39-7.58-20a2.91,2.91,0,0,0-1.23,0c-2.6,1.45-4.92,2-8.26,0a1,1,0,0,0-.84,1l-.12,24,24.7.11C109.79,269.26,106.58,268.91,103.11,268.91Z"/><path class="cls-7" d="M103.11,268.91l-.4-.08V274l6.67,0C109.79,269.26,106.58,268.91,103.11,268.91Z"/><path class="cls-7" d="M84.72,266.14l0,7.73,7.73,0v0A7.73,7.73,0,0,0,84.72,266.14Z"/><rect class="cls-8" x="92.62" y="251.76" width="4.67" height="3.52"/><rect class="cls-8" x="92.99" y="258.73" width="4.3" height="0.85"/><rect class="cls-8" x="92.99" y="260.51" width="4.3" height="0.85"/><polygon class="cls-8" points="97.29 263.14 92.99 263.14 92.96 262.29 97.26 262.29 97.29 263.14"/><path class="cls-6" d="M66,265.9l.26-16.25a.88.88,0,0,0-.84-.91l-9,.26a.88.88,0,0,0-.79.8c-.09.69.19,15.71.06,16.7a5.84,5.84,0,0,0-1.62,4.16v3.18H68.43v-3.18A5.32,5.32,0,0,0,66,265.9Z"/><path class="cls-5" d="M66.9,276.9H55.62a1.54,1.54,0,0,1-1.53-1.54v-1.63H68.44v1.64A1.53,1.53,0,0,1,66.9,276.9Z"/><rect class="cls-8" x="57.18" y="251.76" width="8.27" height="3.52"/><rect class="cls-8" x="57.55" y="258.73" width="7.54" height="0.85"/><rect class="cls-8" x="57.55" y="260.51" width="7.54" height="0.85"/><polygon class="cls-8" points="65.08 263.14 57.55 263.14 57.5 262.29 65.03 262.29 65.08 263.14"/><path class="cls-7" d="M66,265.9H55.73a7.46,7.46,0,0,0-1.63,4.76v3.18H68.43v-3.18A5.32,5.32,0,0,0,66,265.9Z"/><path class="cls-6" d="M96.44,139.73s8.68,23.45,2.89,50.29c0,0-21.37,10.2-48.12,1.25,0,0-6.83-33.35,1.07-48.74Z"/><path class="cls-9" d="M123.43,144.57c.78,0,1.84,0,2.93,0,3.54.06,2.9-2,2.9-2l-4.1-.53-3.09-.46c-2.19-.91-8.38-1.16-8.38-1.16l-1.16,2.85,1.33,2.36a1.12,1.12,0,0,0,.1.31l2.41,4.12h0l3.25,5.55c.36.69.84,1.24,1.53.88l.13-.07c.69-.37.46-1,.09-1.74l-1.17-2.48,2.66,4.54c.36.69.84,1.24,1.53.87l.13-.06c.69-.37.46-1.05.09-1.74l-.23-.49,1.6,2.42c.4.67.91,1.19,1.58.79l.12-.07c.67-.4.41-1.08,0-1.74l-1.87-3.48,1.86,2.27c.47.62,1,1.09,1.66.62l.11-.08c.62-.47.29-1.11-.18-1.74l-5.56-8.15A9.61,9.61,0,0,1,123.43,144.57Z"/><path class="cls-9" d="M14.61,85.58c-.13-.76-.42-1.78-.67-2.85-.83-3.44,1.32-3.27,1.32-3.27l1.41,3.89,1.13,2.92c1.37,1.93,3,7.92,3,7.92L18.23,96l-2.6-.79a1.15,1.15,0,0,1-.32,0l-4.55-1.46h0l-6.12-2c-.75-.2-1.4-.55-1.19-1.3l0-.14c.2-.75.92-.68,1.67-.47l2.68.6-5-1.6c-.75-.21-1.4-.56-1.19-1.31l0-.14c.2-.75.92-.68,1.68-.47l.53.12L1.17,86c-.74-.25-1.36-.63-1.12-1.37l.05-.14c.25-.74,1-.63,1.7-.38l3.8,1.07L3,83.84c-.71-.32-1.29-.77-1-1.48l.06-.13c.32-.71,1-.52,1.73-.2L13,85.67A8.78,8.78,0,0,0,14.61,85.58Z"/><path class="cls-8" d="M83.17,62.56c.25,5-.79,9.69-5.51,10.37-7.22,1-14.33-4.78-17.92-8.34-1.19.73-2.4,1.45-3.56,2.19h0a127.25,127.25,0,0,0,6.07,14.91l10.62-1,16.56-1.57A103.92,103.92,0,0,0,84.7,63.26C84.16,63.06,83.71,62.77,83.17,62.56Z"/><path class="cls-8" d="M81.27,101.64c13.88,0,9.67-21.83,3.43-38.38h0l-2,3.52-20.62,4-2.89,4C63.42,85.11,71.71,101.64,81.27,101.64Z"/><path class="cls-10" d="M84.49,127.8s-14.2-9.56-19.31-25.29C60,97.59,59.7,88.36,57.9,81.59l-4,3.85,9.5,30-1.72,7.31A39.26,39.26,0,0,0,84.49,127.8Z"/><path class="cls-8" d="M91.37,77.55,85.81,63.86l-1.11-.6h0c6.24,16.55,10.45,38.38-3.43,38.38-9.56,0-17.85-16.53-22.08-26.82l-5.56,7.71L64.84,117l-3.48,11.83L95,127.47s-5.28-23.38,0-30.29C102.5,87.52,91.9,79,91.37,77.55Z"/><path class="cls-11" d="M62.31,122.13h0C62.25,122.22,62.2,122.31,62.31,122.13Z"/><path class="cls-12" d="M62.31,122.12h0C62.42,121.94,62.36,122,62.31,122.12Z"/><path class="cls-10" d="M74.58,100.57a21.17,21.17,0,0,1-17.41-5.44l1,3.45S67,104.21,74.58,100.57Z"/><path class="cls-13" d="M59.73,92.07l0-2.4s1.24-20.79-9.21-19.32c-4.38.62-6.15,11.16-5.55,21.06A20.19,20.19,0,0,0,53,92.9,31.31,31.31,0,0,0,59.73,92.07Z"/><path class="cls-14" d="M61.78,122.23A11.35,11.35,0,0,0,58.42,125s28.09,13.09,37.82.72c0,0-.23-4.17-2.16-3-5.08,3-6.58,6-18.74,4A40.9,40.9,0,0,1,61.78,122.23Z"/><path class="cls-8" d="M59.74,64.59C44.68,67.09,40.87,84.31,35.2,93c-5.27,8.09-8.8,10.23-14.1-3.4-2.11-5.42-12,6.25-10.58,9.05,17.2,33.7,36.05,3.15,38.45-.19,0,0-5.39,44,.32,45.52s16.53,3.65,25.57,1.55,21.35-.6,24.21-3S97.46,95.9,97.46,95.9c-1.39,25.11,15.15,48.44,17,53.13.74,1.84,10.17-6.53,8.9-8.58-10.3-16.56-11.31-65.19-40.22-77.89l7.36,13.51L89.44,90.38,74.58,100.57,64.4,95.13,59.19,74.82l-.77-8Z"/><path class="cls-8" d="M83.17,62.56c-1-.36-1.93-.72-2.88-1.09-1.45-.57-2.86-1.17-4.16-1.81a12.78,12.78,0,0,0-5.31-.83,12.91,12.91,0,0,0-5,1.8c-.63.48-1.29.94-2,1.4-1.3.87-2.68,1.72-4.07,2.56,3,8.47,12.74,63.09,20,62.05C84.42,126,83.42,67.51,83.17,62.56Z"/><path class="cls-9" d="M69,47.43h5.83A2.58,2.58,0,0,1,77.44,50V66.6a0,0,0,0,1,0,0h-11a0,0,0,0,1,0,0V50A2.58,2.58,0,0,1,69,47.43Z" transform="translate(145.67 111.7) rotate(178.16)"/><path class="cls-15" d="M77.66,54.47c-5.35-.54-10.79.69-11,4.91,0,0-.61-9.51-1-12.35C65.66,47,71.72,55,77.66,54.47Z"/><path class="cls-15" d="M78,54.65s2.61-14.2,1.44-18.38L78,19.29c-1.17-4.17-4.4-8-8.33-7.54l-9.66,1c-3.94.42-7,5.15-5.87,9.32L61.86,46.4C63,50.58,67.83,55.64,78,54.65Z"/><path class="cls-9" d="M78.11,54.63h.26c5.68-.61,10.71-5.89,10.11-11.57L86.34,23.12a9.29,9.29,0,0,0-10.2-8.23L63.43,16.24c-1.45.16-4.29,1.68-4.14,3.13l3.78,22.24C63.91,49.44,70.28,55.47,78.11,54.63Z"/><path class="cls-6" d="M74.62,45.67a5.07,5.07,0,0,0,5.07,2.67c2.12-.25,3-1.8,3.39-3.74A20.79,20.79,0,0,1,74.62,45.67Z"/><path class="cls-6" d="M74.62,45.67c1.56-.6,3.82-1.38,5.4-.72.63-.9,2.2-.55,3.07-.35-1,.37-1.78,1.33-2.84,1.59A10.41,10.41,0,0,1,74.62,45.67Z"/><path class="cls-4" d="M68.15,22.56h0c2.41-4.57,4.17-8.34,4.17-8.34l-6.78-3.49C39,14.5,61.62,46,61.62,46c-.27-2.78-.83-5.48-.41-8.61A30,30,0,0,0,68.15,22.56Z"/><path class="cls-15" d="M55.52,41.46c1.61,2.58,4.25,3.84,5.89,2.82a2.17,2.17,0,0,0,.44-.36c1.19-1.24,1.07-3.84-.38-6.17-1.61-2.58-4.24-3.84-5.88-2.81S53.92,38.88,55.52,41.46Z"/><path class="cls-4" d="M65.53,10.73s7.62-1.52,13.13-.28,10.23,8.47,8.57,21.12a16.63,16.63,0,0,0-9.85-9A10.5,10.5,0,0,1,79.56,26s-6.64-4.86-16.9-3Z"/><path class="cls-16" d="M81.67,35s-1.46-3.52.75-4c1.84-.39,2.42,3,2.21,3.8A3.23,3.23,0,0,0,81.67,35Z"/><path class="cls-16" d="M73,36.62s-.09-3.81-2.31-3.33c-1.83.39-1,3.7-.47,4.36A2.84,2.84,0,0,1,73,36.62Z"/><path class="cls-15" d="M79.42,36.39A7.05,7.05,0,0,1,81.16,39c.47,1.48-3.3,2.58-3.3,2.58a9.69,9.69,0,0,0,1.88-2.19C80.11,38.57,79.42,36.39,79.42,36.39Z"/><path class="cls-8" d="M60.12,43.57s1.94,4.77-.19,4.77S60.12,43.57,60.12,43.57Z"/><path class="cls-17" d="M64.14,63.26s0,.11,0,.42a8.86,8.86,0,0,0,.42,1.62,7.92,7.92,0,0,0,1.88,3.08,7.42,7.42,0,0,0,2.31,1.52,9.52,9.52,0,0,0,3.44.6,6.81,6.81,0,0,0,5.45-2.69,10.44,10.44,0,0,0,1.68-3.2c.49-1.61.42-2,.37-2A15,15,0,0,0,79,64.5a11,11,0,0,1-1.7,3A6.42,6.42,0,0,1,72.19,70a9.35,9.35,0,0,1-3.25-.56,7.13,7.13,0,0,1-2.18-1.4,8.26,8.26,0,0,1-1.88-2.89C64.3,63.65,64.23,63.23,64.14,63.26Z"/><path class="cls-6" d="M61.76,52.09c-1.68,6.36-4.42,7.47-4.59,9S65.25,72.44,73.1,72.72s20.12-6.54,18-8.12c-3.74-2.8-1.23-11.14-4.37-13.53-1.23-.93-9.08,3.38-14.72,2.61S63.11,47,61.76,52.09Z"/><path class="cls-4" d="M46.76,8.29c2-3.22,3.13-2,8.66-4.54S60.74-.45,64.49.11s7.38,8.26-4.43,13.7S44.76,11.51,46.76,8.29Z"/><path class="cls-17" d="M54.3,15.7c0,.06.25,0,1.13-.22a43.66,43.66,0,0,0,4.94-2A47,47,0,0,0,65.08,11c.78-.49.94-.66.91-.71s-.82.35-5.82,2.76S54.24,15.53,54.3,15.7Z"/><path class="cls-17" d="M86,24.7c.06,0,.06-.34-.17-1.69a6.61,6.61,0,0,0-.29-1.2c-.16-.45-.27-1-.53-1.6a14.9,14.9,0,0,0-2.62-4.29,13.35,13.35,0,0,0-4-3.05,13.67,13.67,0,0,0-2.76-1c-1.34-.29-1.69-.2-1.69-.15s.32.11,1.61.48a16.43,16.43,0,0,1,2.65,1.06,13.59,13.59,0,0,1,3.84,3,15.31,15.31,0,0,1,2.57,4.14c.27.57.39,1.12.56,1.56a6.49,6.49,0,0,1,.34,1.16C85.79,24.4,85.92,24.71,86,24.7Z"/><path class="cls-17" d="M60.93,33.94s.21-.11.72-.8A24.89,24.89,0,0,0,64,28.74,26.61,26.61,0,0,0,65.57,24c.18-.84.15-1.06.09-1.07s-.15.17-.41,1-.68,2.26-1.68,4.64A43.61,43.61,0,0,1,61.37,33C60.94,33.69,60.87,33.9,60.93,33.94Z"/><path class="cls-17" d="M59.29,33.25c.08,0,.57-.28,2-3.28s1.25-3.67,1.15-3.69-.25.48-1.58,3.49S59.14,33.16,59.29,33.25Z"/><path class="cls-7" d="M98.28,184.83c.09,0,.26-.49.68-2.69a69.77,69.77,0,0,0,1-12.91,64.55,64.55,0,0,0-1.37-12.88c-.49-2.18-.73-2.68-.81-2.66s0,.56.35,2.75a83.54,83.54,0,0,1,1.17,12.8,92.53,92.53,0,0,1-.75,12.83C98.2,184.27,98.19,184.82,98.28,184.83Z"/><path class="cls-7" d="M53.59,189.56c0,.09.4.3,2.29.93a59.88,59.88,0,0,0,11.25,2.24,62,62,0,0,0,11.48.28c2-.17,2.44-.34,2.43-.42s-.49-.1-2.46-.05A81.54,81.54,0,0,1,56,190C54.1,189.53,53.62,189.47,53.59,189.56Z"/><path class="cls-18" d="M74.27,57.68c0,.09.21.11,1,.11.38,0,.89,0,1.62.06a11.81,11.81,0,0,0,2.88-.11,19.26,19.26,0,0,0,4.3-1.4c.72-.39.78-.64.73-.69s-.22,0-.91.25-2,.73-4.24,1.19a14.89,14.89,0,0,1-2.74.16,10.83,10.83,0,0,0-1.67.07C74.41,57.44,74.25,57.6,74.27,57.68Z"/><path class="cls-18" d="M75.76,62c0-.08-.11-.29-1-.89a12.36,12.36,0,0,0-2-1.11,8.22,8.22,0,0,0-1.67-.53,14.64,14.64,0,0,0-2.19-.19A5.46,5.46,0,0,1,65.55,58a15.24,15.24,0,0,1-1.61-1.48c-.72-.74-.94-.9-1-.84s0,.31.66,1.15a9.94,9.94,0,0,0,1.59,1.65,5.79,5.79,0,0,0,3.71,1.39,9.44,9.44,0,0,1,3.66.62,20.61,20.61,0,0,1,2,1C75.46,62,75.71,62,75.76,62Z"/><path class="cls-18" d="M71.1,65.59c0,.1.33,0,1.49-.17a9.09,9.09,0,0,1,2.48-.17c1.1,0,2.38.71,4.3,1a9.7,9.7,0,0,0,4.48-.64,19.09,19.09,0,0,0,2.38-1.07c1.07-.58,1.28-.79,1.24-.87s-.33,0-1.44.45c-.56.22-1.32.56-2.38.91a9.69,9.69,0,0,1-4.21.57c-1.72-.24-3.1-.92-4.32-.94a7.85,7.85,0,0,0-2.63.32C71.31,65.31,71.08,65.51,71.1,65.59Z"/><path class="cls-18" d="M70.5,69s.06-.38-.82-1a8.47,8.47,0,0,0-2-.85,10.43,10.43,0,0,1-3.17-1.58,28.54,28.54,0,0,1-4.07-4c-.66-.74-.87-.89-1-.83s0,.3.59,1.12c.29.41.71,1,1.33,1.69a16.37,16.37,0,0,0,2.71,2.55,10.28,10.28,0,0,0,3.38,1.62,11.36,11.36,0,0,1,2,.68C70.28,68.86,70.41,69.09,70.5,69Z"/><path class="cls-6" d="M79.89,78a1.77,1.77,0,1,0,1.77-1.77A1.78,1.78,0,0,0,79.89,78Z"/><path class="cls-6" d="M83.43,110.81A1.78,1.78,0,1,0,85.21,109,1.78,1.78,0,0,0,83.43,110.81Z"/><circle class="cls-6" cx="84.49" cy="135.67" r="1.77"/><path class="cls-6" d="M82.72,100.07a1.78,1.78,0,1,0,1.77-1.78A1.77,1.77,0,0,0,82.72,100.07Z"/><circle class="cls-6" cx="85.21" cy="121.67" r="1.77"/><circle class="cls-6" cx="83.43" cy="88.38" r="1.77"/><path class="cls-19" d="M80.45,143.52s.1-.28.17-1.17.16-2.37.28-4.76c.17-4.79.52-13.24,0-27.81s-1.6-23-2.19-27.72c-.31-2.38-.55-3.85-.71-4.72s-.25-1.16-.3-1.15a3.59,3.59,0,0,0,0,1.18c.1.89.25,2.36.51,4.74.46,4.77,1.41,13.15,2,27.7s.25,23,.2,27.76c-.06,2.4-.08,3.88-.08,4.77S80.4,143.52,80.45,143.52Z"/><path class="cls-19" d="M37.88,110.81c.06.08.46-.15,2-1.32a42.94,42.94,0,0,0,7.64-8.19,50.24,50.24,0,0,0,5.62-9.69c.75-1.78.81-2.26.73-2.29s-.3.38-1.15,2.09a66,66,0,0,1-5.73,9.5,54.31,54.31,0,0,1-7.41,8.23C38.14,110.38,37.82,110.74,37.88,110.81Z"/><path class="cls-19" d="M100.57,118.92c-.09,0-.12.3.07,1.44a33.61,33.61,0,0,0,2,6.41,42.8,42.8,0,0,0,3,6c.61,1,.84,1.17.92,1.12s0-.32-.51-1.35-1.44-2.82-2.75-6a61.92,61.92,0,0,1-2.14-6.26C100.8,119.15,100.66,118.9,100.57,118.92Z"/><path class="cls-19" d="M20.76,94.19s0,.26.36,1a18.44,18.44,0,0,0,2.17,3.59,9.43,9.43,0,0,0,2.87,2.57,5.65,5.65,0,0,0,2.41.66,5.9,5.9,0,0,0,2.8-.7,15.13,15.13,0,0,0,5-4.73,47.34,47.34,0,0,0,4.29-7.48C42,86.18,43,83.48,44.08,81.23a35.26,35.26,0,0,1,3.55-5.67A31,31,0,0,1,54,69.44c3.44-2.34,4.49-2.53,4.43-2.66s-.28,0-1,.27a20.92,20.92,0,0,0-3.68,2,29.47,29.47,0,0,0-6.58,6.12,35.48,35.48,0,0,0-3.65,5.76c-1.15,2.31-2.1,5-3.48,7.84a47.67,47.67,0,0,1-4.21,7.39,14.55,14.55,0,0,1-4.72,4.56,5.34,5.34,0,0,1-2.51.67,5.24,5.24,0,0,1-2.17-.57,9,9,0,0,1-2.75-2.38A25.59,25.59,0,0,1,21.34,95C21,94.37,20.8,94.17,20.76,94.19Z"/><path class="cls-19" d="M92.93,69c-.09.08.48.72,2.69,3.43a73.93,73.93,0,0,1,10.31,17.44c2.11,4.9,3.41,8.91,4.46,12.06s1.74,5.48,2.27,7.16c1.06,3.35,1.38,4.14,1.47,4.12s-.08-.86-1-4.25c-.48-1.7-1.15-4-2.14-7.21a127.74,127.74,0,0,0-4.43-12.14A66.8,66.8,0,0,0,96,72.15a35.08,35.08,0,0,0-2.38-2.58C93.13,69.11,93,69,92.93,69Z"/><path class="cls-19" d="M50.17,144.21s.17.15.75.38a23.51,23.51,0,0,0,3.24.91,62.53,62.53,0,0,0,7.13,1.09,54.49,54.49,0,0,0,5.46.26,28.48,28.48,0,0,0,6.91-.75,103.16,103.16,0,0,1,12.17-1.59L93,144c3.36-.24,4.16-.34,4.16-.44s-.82-.15-4.18,0c-1.68.07-4,.18-7.18.41a96.1,96.1,0,0,0-12.28,1.56,28.45,28.45,0,0,1-6.75.74c-2,0-3.83-.08-5.41-.22-3.15-.27-5.44-.65-7.08-.94C51,144.42,50.22,144.09,50.17,144.21Z"/><path class="cls-19" d="M97.46,95.9c-.09,0-.13.62,0,3.12s.39,6.89.93,14.47.9,12,1.13,14.47.37,3.08.46,3.08.13-.61,0-3.11-.39-6.9-.94-14.48-.89-12-1.13-14.47S97.55,95.9,97.46,95.9Z"/><path class="cls-17" d="M95.71,236.26c.18,0,.37-3.12.6-22.87s.12-22.87-.07-22.87-.36,3.12-.59,22.87S95.53,236.26,95.71,236.26Z"/><path class="cls-17" d="M83.23,235.19c.18,0,.11-1.71-1.3-12.21s-1.78-12.13-2-12.11-.1,1.71,1.3,12.2S83.05,235.21,83.23,235.19Z"/><path class="cls-17" d="M55.75,244.57c.18,0,.19-3.41-.7-24.88s-1.18-24.86-1.36-24.85-.19,3.41.7,24.88S55.57,244.58,55.75,244.57Z"/><path class="cls-17" d="M69.21,210.87c.18,0,.4-.86.86-6.49s.39-6.53.21-6.54-.41.86-.87,6.49S69,210.86,69.21,210.87Z"/><path class="cls-19" d="M50.17,140.45c.36,0-1-2.39-.18-17.84.43-7.7.89-12.16,1.06-14.69s.19-3.15.09-3.16-.24.58-.55,3.11-.82,7-1.26,14.71a88.7,88.7,0,0,0,.13,14.78,16.69,16.69,0,0,0,.47,2.5C50.06,140.32,50.13,140.46,50.17,140.45Z"/><path class="cls-19" d="M11.65,99.06c.09,0,.26-.13.71-.94a21.57,21.57,0,0,1,3-4.37,11,11,0,0,1,4.29-3c.85-.31,1.07-.35,1.07-.45s-.26-.21-1.21,0a9.6,9.6,0,0,0-4.64,3,15.39,15.39,0,0,0-3,4.61C11.59,98.79,11.57,99,11.65,99.06Z"/><path class="cls-19" d="M114.57,147c.05.07.24.05.91-.3a18.57,18.57,0,0,0,3.45-2.68c3.25-3.23,3.42-4,3.31-4.12s-.58.47-3.77,3.64C115.16,146.54,114.43,146.75,114.57,147Z"/><path class="cls-2" d="M91.35,67.64c-.36.17-.4,1,.48,3.68.36,1.4,1,3.26,1.67,5.88a102.73,102.73,0,0,1,2.18,10.25c1.34,8.6,1.46,13.69,1.76,16.55s.53,3.58.93,3.61.82-.67,1.09-3.61a72.85,72.85,0,0,0-1-17A68.63,68.63,0,0,0,96,76.46a46.15,46.15,0,0,0-2.3-5.87C92.3,68,91.71,67.47,91.35,67.64Z"/><path class="cls-2" d="M56.18,65.53c-.37.12-.51.91,0,3.67.06.35.16.72.22,1.14s.11.87.18,1.36.14,1,.22,1.58c0,.28.09.57.14.88s0,.62.06,1a35,35,0,0,1,.12,4.47,33,33,0,0,1-.57,5.6,34.39,34.39,0,0,1-3.33,9.48,50.09,50.09,0,0,1-3.1,5c-1.62,2.27-2,2.89-1.7,3.22s1.1.16,3.24-1.92a27.39,27.39,0,0,0,3.85-5.06A32.28,32.28,0,0,0,60,79.62a29.9,29.9,0,0,0-.31-4.8c0-.35-.07-.69-.12-1s-.14-.63-.2-.93l-.39-1.65c-.13-.51-.24-1-.35-1.4s-.29-.8-.42-1.15C57.09,65.93,56.56,65.4,56.18,65.53Z"/><path class="cls-6" d="M70.85,71.3c-.58.69-6.49,7.49-12.15,23.39S46.51,127.17,38.88,133c0,0-9.42-6.37-8.64-8.72s6.92-7.08,11.25-16.12S59.13,70,63.79,66.69Z"/><path class="cls-8" d="M40.52,134.53a2.49,2.49,0,0,1-3.25.59,2.35,2.35,0,0,1-1.11-1.33c-.09-.27-.29-1.45-.07-1.27l1.45.6c.23,0,.18-.1-.16.08a2.68,2.68,0,0,1-1,.28,2.3,2.3,0,0,1-2-.83c-1-1.22-.5-2.8-.29-4.22l2,2.6c-.33,0-1,.35-1.41.33a2.77,2.77,0,0,1-1.62-.63c-1.14-.95-.76-2.07-1.19-3.27l3,1.23c-1.27.69-2.79,1.1-4.09.21a3.24,3.24,0,0,1-1.21-1.57c-.06-.36-.11-.73-.16-1.1,1.35.41,1.56.72.63.91-2.48.94-3.55-3-1.1-4,1.12-.43,2.3-.77,3.37,0a2.63,2.63,0,0,1,.91,1.07,1.87,1.87,0,0,1,.26.88c.24.77,0,.79-.69,0a2.08,2.08,0,0,1,3,1.23c.2.54.66,1.55-.11,1.16l-1.58-.21c.71-.12,1.19-.49,1.95-.4a2.11,2.11,0,0,1,2,2.6c-.06.4,0,1.39-.29.85l-1.78-1c-.9,0,.76-.36,1-.38a2.82,2.82,0,0,1,1.74.48c1.34.91,1,1.92,1.34,3.25l-1-1.23.32.19-1.58-.2-.3.17c1.64-2.08,4.53.85,2.9,2.9Z"/><path class="cls-17" d="M87.46,225.17c0,.06-.07.18.17.41a2.27,2.27,0,0,0,1.79.45,2.3,2.3,0,0,0,1.61-.9c.17-.28.13-.4.06-.44s-.18,0-.4.11a2.93,2.93,0,0,1-1.36.57,3.08,3.08,0,0,1-1.45-.19C87.63,225.09,87.52,225.1,87.46,225.17Z"/><path class="cls-17" d="M59.43,224.84c-.08,0-.22,0-.24.41a1.56,1.56,0,0,0,1.39,1.35,2.76,2.76,0,0,0,1.8-.37c.26-.16.29-.26.26-.35s-.13-.13-.42-.09a5.21,5.21,0,0,1-1.54.16,1.43,1.43,0,0,1-1-.79C59.57,225,59.52,224.86,59.43,224.84Z"/><path class="cls-1" d="M291.43,278.76c0,2.95-29.09,5.34-65,5.34s-65-2.39-65-5.34,29.08-5.35,65-5.35S291.43,275.8,291.43,278.76Z"/><path class="cls-4" d="M247.83,86.67c.55-2.26,2.14-4.1,3.23-6.15,3.22-6,2-13.31,2.36-20.12a11.05,11.05,0,0,1,1-4.56c.5-1,1.26-1.82,1.73-2.82.9-1.89.67-4.1.64-6.19a30.8,30.8,0,0,1,.72-7c.58-2.61,1.5-5.16,1.62-7.83a18.11,18.11,0,0,0-2.05-8.54c-2.12-4.39-6.19-9.21-10.3-11,0,0-16.33,12-16.37,12.74s-7.1,60.3-7.1,60.3Z"/><path class="cls-20" d="M241.92,54.71c8.31,3,20.33,10,26.91,22.32s8.39,16.48,7.29,17.09-7.5,7.26-8.56,5.13S260.64,84,256.07,78.41s-7.83-15.57-17.85-17.57Z"/><path class="cls-21" d="M239.05,55.73c10.31.51,26.1,4,37.69,14.9s15,14.77,14,15.79S284.89,96.6,283,94.69s-13-14-20-18.4-14.09-14-26-12.82Z"/><path class="cls-8" d="M288.87,85.91c.22-.39.18-.34-.1.14-.13.29-.24.58-.34.87s-.07.41-.11.61c-.09.37,0,.29.26-.24-1,0-2.16,1.26-2.36,2.16-.17.71.43,0-.23.27A3.27,3.27,0,0,0,284.65,91a3.56,3.56,0,0,0-.38,1.4c.07.76.1.73.09-.1l-.74.76c-1.85,1.89,1.05,4.8,2.91,2.91.88-.91,2-1.79,1.91-3.19s-.27.54-.37.5c.09,0,.6-.36.68-.42.42-.31,1.36-1.13,1.27-1.72,0-.27-.46.07-.14.07a2.41,2.41,0,0,0,.89-.37A3.09,3.09,0,0,0,292,89.44c.23-.5.27-1,.45-1.56a3.89,3.89,0,0,0,.51-2c-.33-2.59-4.44-2.62-4.12,0Z"/><path class="cls-22" d="M232.81,60.32c-7.9.11-25.08,8.42-30.07,17.44s-10,133.66-8.05,134.8c11.75,6.93,32.4,10.19,43.89,10.19,12,0,25.9-6.15,24.71-8.05s-2.24-113.26-3-123.65S262,73.13,250,66.78,232.81,60.32,232.81,60.32Z"/><path class="cls-6" d="M246.48,64.59s-3.73,20.85-19.17,20.85-4.26-22.88-4.26-22.88l5.63-2.24Z"/><path class="cls-6" d="M206.46,77.3l1.42-1.93c-.49-1.51,10.51-19.55,18-11.12,2.59,2.93-2,12.14-8.16,19.9a16.44,16.44,0,0,1-6.75-2.81A24.74,24.74,0,0,1,206.46,77.3Z"/><path class="cls-9" d="M230,126.72l18.53,6.16L251,215.8l-.45,48.44,1.69,4.62c-3.52-2.26-7.25-1.12-8.46,0,0,0,.44.48.21-2.52h0l-.25-2c0-.17-.06-.48-.06-.48l-5.57-46.45Z"/><path class="cls-8" d="M251,215.8l-.45,48.44,1.69,4.62c-3.52-2.26-7.25-1.12-8.46,0,0,0-.15-4.95-.11-5l-5.57-46.45-.35-3.95h13.18Z"/><path class="cls-8" d="M209,257.35l.32-43.85h12.21l-5.1,47.15s.5,4.81-.77,6.05c-2.9,2.84-4,5.35-7.8,3.82l1.07-13Z"/><path class="cls-6" d="M223.05,62.56c1-.36,1.93-.72,2.88-1.09,1.45-.57,2.86-1.17,4.17-1.81a12.76,12.76,0,0,1,5.3-.83,12.89,12.89,0,0,1,5.06,1.8c.62.48,1.28.94,2,1.4,1.3.87,2.68,1.72,4.06,2.56-3.59,3.56-10.69,9.38-17.92,8.34C223.85,72.25,222.8,67.51,223.05,62.56Z"/><path class="cls-23" d="M244,81.69c-4.6,9.47-11.4,20-19,20-9.58,0-10.54-10.55-8.17-22.52l16.55,1.57Z"/><path class="cls-6" d="M250,66.78c5,3.18,9.28,6.5,8.86,11,0,0-.66,5.26-4.76,4.87l-10.17-1A129.37,129.37,0,0,0,250,66.78Z"/><path class="cls-6" d="M211.07,77.31c.48-5,4.06-11.76,10.37-14.14a103.55,103.55,0,0,0-4.65,16l-4.25-.4C208.44,78.34,211.07,77.31,211.07,77.31Z"/><path class="cls-6" d="M223.05,62.56c-.25,5,.8,9.69,5.51,10.37,7.23,1,14.33-4.78,17.92-8.34,1.2.73,2.4,1.45,3.56,2.19h0A129.37,129.37,0,0,1,244,81.69l-10.63-1-16.55-1.57a103.55,103.55,0,0,1,4.65-16Z"/><path class="cls-9" d="M228.79,47.43h11a0,0,0,0,1,0,0V64a2.58,2.58,0,0,1-2.58,2.58h-5.83A2.58,2.58,0,0,1,228.79,64V47.43a0,0,0,0,1,0,0Z" transform="translate(1.95 -7.47) rotate(1.84)"/><path class="cls-15" d="M228.56,54.47c5.36-.54,10.79.69,11.05,4.91,0,0,.6-9.51.95-12.35C240.56,47,234.5,55,228.56,54.47Z"/><path class="cls-6" d="M221.73,127.8s14.2-9.56,19.31-25.29c5.2-4.92,5.49-14.15,7.28-20.92l4,3.85L247,115.22l-2.48,7.52A39.23,39.23,0,0,1,221.73,127.8Z"/><path class="cls-6" d="M223.32,110.6c-14.92,0-10.57-26.68-3.87-47l3.6-1,20.88,10.12L247,77.63C242.49,90.28,233.59,110.6,223.32,110.6Z"/><path class="cls-6" d="M214.68,79.5l6-14.47.67-.16h0c-6.24,16.54-10.46,38.71,3.42,38.71,9.57,0,17.85-16.52,22.09-26.82l5.55,7.72-11.21,34.44,3.49,11.84-33.65-1.35s5.29-23.37,0-30.28C203.56,89.46,214.15,80.9,214.68,79.5Z"/><path class="cls-23" d="M243.91,122.13h0C244,122.22,244,122.31,243.91,122.13Z"/><path class="cls-12" d="M243.92,122.12h0C243.8,121.94,243.86,122,243.92,122.12Z"/><path class="cls-8" d="M212.36,122.23c1,8.25,22.5,6.93,31.55-.1l.42-.38.23,1s12.67,12.54,15.31,30.51c2.44,16.58-7.63,77.71-8.61,92.58a23.54,23.54,0,0,1-10.16,0c-2.7-.71-15.51-77-15.51-77s-4.11,76.16-7,76.35a41.45,41.45,0,0,1-10.1-.41S186,157.17,212.36,122.23Z"/><path class="cls-15" d="M228.26,54.65s-2.61-14.2-1.44-18.38l1.44-17c1.18-4.17,4.4-8,8.34-7.54l9.66,1c3.93.42,7,5.15,5.87,9.32L244.36,46.4C243.19,50.58,238.39,55.64,228.26,54.65Z"/><path class="cls-9" d="M228.12,54.63h-.26c-5.69-.61-10.72-5.89-10.11-11.57l2.13-19.94a9.29,9.29,0,0,1,10.2-8.23l12.71,1.35c1.45.16,4.3,1.68,4.14,3.13l-3.78,22.24C242.32,49.44,235.94,55.47,228.12,54.63Z"/><path class="cls-6" d="M231.61,45.67a5.08,5.08,0,0,1-5.08,2.67c-2.11-.25-3-1.8-3.39-3.74A20.84,20.84,0,0,0,231.61,45.67Z"/><path class="cls-6" d="M231.6,45.67c-1.56-.6-3.82-1.38-5.4-.72-.63-.9-2.2-.55-3.07-.35,1,.37,1.79,1.33,2.85,1.59A10.39,10.39,0,0,0,231.6,45.67Z"/><path class="cls-4" d="M238.08,22.56h0c-2.41-4.57-4.17-8.34-4.17-8.34l6.79-3.49C267.22,14.5,244.61,46,244.61,46c.27-2.78.82-5.48.4-8.61A29.94,29.94,0,0,1,238.08,22.56Z"/><path class="cls-15" d="M250.7,41.46c-1.61,2.58-4.24,3.84-5.88,2.82a2.17,2.17,0,0,1-.44-.36c-1.19-1.24-1.07-3.84.37-6.17,1.61-2.58,4.25-3.84,5.89-2.81S252.31,38.88,250.7,41.46Z"/><path class="cls-4" d="M240.7,10.73s-7.63-1.52-13.13-.28-9.86,7.67-8.2,20.32a15.19,15.19,0,0,1,9.47-8.19A10.59,10.59,0,0,0,226.67,26s6.63-4.86,16.9-3Z"/><path class="cls-16" d="M224.55,35s1.47-3.52-.75-4c-1.84-.39-2.41,3-2.2,3.8A3.21,3.21,0,0,1,224.55,35Z"/><path class="cls-16" d="M233.25,36.62s.09-3.81,2.31-3.33c1.83.39,1,3.7.47,4.36A2.84,2.84,0,0,0,233.25,36.62Z"/><path class="cls-15" d="M226.8,36.39A7,7,0,0,0,225.07,39c-.47,1.48,3.29,2.58,3.29,2.58a9.73,9.73,0,0,1-1.87-2.19C226.12,38.57,226.8,36.39,226.8,36.39Z"/><path class="cls-6" d="M246.11,43.57s-1.94,4.77.19,4.77S246.11,43.57,246.11,43.57Z"/><path class="cls-6" d="M248.12,93.25l-.09-2.4S245.87,70.18,255.17,71c3.9.34,6,10.74,6,20.67a16.45,16.45,0,0,1-7,2A24.21,24.21,0,0,1,248.12,93.25Z"/><path class="cls-9" d="M167.94,133.93c-.93-.32-2.26-.63-3.61-1-4.37-1.19-2.85-3.5-2.85-3.5l5.23.81,4,.54c3-.34,10.7,1.57,10.7,1.57l.41,3.92-2.48,2.42a1.86,1.86,0,0,1-.22.35l-4.44,4.2h0l-6,5.66c-.69.72-1.48,1.22-2.2.53l-.13-.13c-.71-.69-.19-1.46.51-2.17l2.32-2.63-4.88,4.63c-.7.71-1.49,1.22-2.2.53l-.13-.13c-.72-.7-.19-1.46.5-2.17l.46-.52-2.83,2.4c-.73.68-1.54,1.15-2.22.41l-.12-.13c-.68-.73-.12-1.46.62-2.14l3.53-3.6-3.09,2.12c-.8.6-1.66,1-2.25.18l-.11-.15c-.6-.8,0-1.47.83-2.06l9.74-8A11,11,0,0,0,167.94,133.93Z"/><path class="cls-4" d="M215.49,64.62,210,210.8l-15.33,1.76c-3.43-.65-3.25-99.46,8.05-134.8C204.73,71.53,203.23,67.2,215.49,64.62Z"/><path class="cls-4" d="M245.45,64s10.46,4.24,13.48,9.54,4.36,141.2,4.36,141.2l-24.06-5Z"/><path class="cls-4" d="M215.49,64.62c-25.46,0-29.87,47.94-44.48,65.21,0,0,3.6,7.83,8.74,12.28,13.5-17.1,24.51-39.5,26.71-42.44C210.71,92.12,215.49,64.62,215.49,64.62Z"/><path class="cls-17" d="M196.73,120.54a3.15,3.15,0,0,1,0,.7c0,.5,0,1.3-.09,2.49-.11,2.38-.25,6.35-.4,12.69s-.26,15.06-.31,26.93c0,5.94,0,12.67,0,20.28s.1,15.88.16,25.22l10.84-2.09c.28-5.65.61-12.67,1-20.15,2.57-52.12,4-82.29,4.9-99.44.47-8.57.75-13.89.93-17.06.1-1.59.17-2.64.22-3.29a4.19,4.19,0,0,1,.11-.91,4.54,4.54,0,0,1,0,.92c0,.65-.05,1.7-.1,3.29-.13,3.18-.35,8.49-.71,17.07-.82,17.15-2.24,47.33-4.71,99.45-.37,7.67-.72,14.87-1,20.67l-12.11,2.33c0-9.64-.1-18.27-.14-26s0-14.34.06-20.28c.09-11.88.27-20.6.46-26.94s.41-10.31.59-12.7c.1-1.19.17-2,.21-2.48A2.34,2.34,0,0,1,196.73,120.54Z"/><path class="cls-17" d="M260.4,113a3.29,3.29,0,0,1,.06.76c0,.55,0,1.43.07,2.75,0,2.63.09,7,.18,14,.09,14.1.26,38.77.55,81l-19.43-4.76c.12-3.09.29-7.2.46-11.45,2.29-55.52,3.62-87.66,4.37-105.93.42-9.13.68-14.79.84-18.17.1-1.69.16-2.81.2-3.51a4.58,4.58,0,0,1,.11-1,5.35,5.35,0,0,1,0,1c0,.7,0,1.82-.08,3.51-.12,3.38-.32,9-.63,18.18-.72,18.27-2,50.42-4.18,105.93-.16,4-.32,8-.44,10.92l18.1,4.44c-.17-41.84-.27-66.25-.33-80.21,0-7,0-11.4,0-14,0-1.32,0-2.2,0-2.74A3.35,3.35,0,0,1,260.4,113Z"/><path class="cls-24" d="M217.86,51.31c-2.08,5.84-4.28,8.49-4.28,11.25s5.84,7.89,13.77,8.4,19.13-6.37,19.13-8.94-1.89-8.75-4.92-11.06c-1.19-.91-8.5,3.25-14.15,2.35S219.54,46.61,217.86,51.31Z"/><path class="cls-4" d="M248.41,65.42c31.13,9.92,68.92,61.3,6.07,94.8a23.88,23.88,0,0,1-6.67-8.88s38.61-32.46,5.52-51.61C245.83,95.39,248.41,65.42,248.41,65.42Z"/><path class="cls-4" d="M194.45,276.7h24.14c.2,0,.35-.38.31-.79l-.21-2.36H194l0,2.17C194,276.26,194.19,276.7,194.45,276.7Z"/><path class="cls-22" d="M200.31,268.91l.4-.08c10-1.07,4.78-18.39,7.58-20a2.91,2.91,0,0,1,1.23,0c2.6,1.45,4.92,2,8.26,0a1,1,0,0,1,.84,1l.12,24L194,274C193.62,269.26,196.84,268.91,200.31,268.91Z"/><path class="cls-25" d="M200.31,268.91l.4-.08V274L194,274C193.62,269.26,196.84,268.91,200.31,268.91Z"/><path class="cls-25" d="M218.7,266.14l0,7.73-7.73,0v0A7.73,7.73,0,0,1,218.7,266.14Z"/><rect class="cls-8" x="206.13" y="251.76" width="4.67" height="3.52" transform="translate(416.93 507.03) rotate(180)"/><rect class="cls-8" x="206.13" y="258.73" width="4.3" height="0.85" transform="translate(416.56 518.31) rotate(180)"/><rect class="cls-8" x="206.13" y="260.51" width="4.3" height="0.85" transform="translate(416.56 521.87) rotate(180)"/><polygon class="cls-8" points="206.13 263.14 210.43 263.14 210.46 262.29 206.16 262.29 206.13 263.14"/><path class="cls-22" d="M241.2,265.9,241,249.65a.88.88,0,0,1,.84-.91l9,.26a.88.88,0,0,1,.79.8c.09.69-.19,15.71-.06,16.7a5.79,5.79,0,0,1,1.61,4.16v3.18H238.8v-3.18A5.31,5.31,0,0,1,241.2,265.9Z"/><path class="cls-4" d="M240.33,276.9h11.28a1.53,1.53,0,0,0,1.53-1.54v-1.63H238.8v1.64A1.54,1.54,0,0,0,240.33,276.9Z"/><rect class="cls-8" x="241.79" y="251.76" width="8.27" height="3.52" transform="translate(491.85 507.03) rotate(180)"/><rect class="cls-8" x="242.15" y="258.73" width="7.54" height="0.85" transform="translate(491.84 518.31) rotate(180)"/><rect class="cls-8" x="242.15" y="260.51" width="7.54" height="0.85" transform="translate(491.84 521.87) rotate(180)"/><polygon class="cls-8" points="242.15 263.14 249.69 263.14 249.74 262.29 242.2 262.29 242.15 263.14"/><path class="cls-25" d="M241.2,265.9h10.31a7.4,7.4,0,0,1,1.62,4.76v3.18H238.8v-3.18A5.31,5.31,0,0,1,241.2,265.9Z"/><path class="cls-19" d="M246,242.28c3.76-.11,6.71,0,6.71,1s.27,4.43-.8,5-12.47.13-12.52-1.27-1.24-4.74,0-4.71S246,242.28,246,242.28Z"/><path class="cls-19" d="M213.62,242.28c3.76-.11,6.72,0,6.72,1s.26,4.43-.81,5-12.46.13-12.52-1.27-1.23-4.74,0-4.71S213.62,242.28,213.62,242.28Z"/><path class="cls-26" d="M226.67,126.72s-.09-.23-.12-.94-.06-1.9-.08-3.82c0-3.84,0-10.6.78-22.24s1.6-18.34,2.09-22.15c.25-1.9.43-3.08.57-3.78s.2-.92.25-.91,0,.93-.36,4.74-1.11,10.52-1.89,22.14-.84,18.37-1,22.2c-.05,1.92-.09,3.11-.14,3.82S226.72,126.72,226.67,126.72Z"/><path class="cls-26" d="M220.05,70.39c0-.07.49.08,2.14,1a18.4,18.4,0,0,0,3.8,1.1,17.58,17.58,0,0,0,6.75-.31,26.86,26.86,0,0,0,6.37-2.47c1.57-.83,2.67-1.53,3.45-2,1.57-1.05,1.93-1.31,2-1.24s-.21.46-1.73,1.62a28.61,28.61,0,0,1-3.43,2.19,25.49,25.49,0,0,1-6.51,2.58,17.37,17.37,0,0,1-7,.27,15.43,15.43,0,0,1-3.9-1.28C220.34,70.76,220,70.47,220.05,70.39Z"/><path class="cls-17" d="M252.42,99c.11-.15.79.19,4.59,3.12s4.29,3.51,4.17,3.65-.81-.21-4.58-3.13S252.31,99.18,252.42,99Z"/><path class="cls-17" d="M247.81,151.34c-.06-.07.15-.39,1.22-1.53s3-3.1,6.08-6.72,4.66-5.87,5.61-7.11,1.19-1.53,1.27-1.48-.05.42-.89,1.75a68,68,0,0,1-5.48,7.27,77.65,77.65,0,0,1-6.26,6.63C248.2,151.2,247.87,151.4,247.81,151.34Z"/><path class="cls-17" d="M254.48,160.22c-.09-.19.44-.52,3.87-2.52s4-2.32,4.08-2.15-.32.67-3.75,2.72S254.55,160.36,254.48,160.22Z"/><path class="cls-17" d="M245.91,147c.17-.07.46.18,1.15,1.42a63.57,63.57,0,0,0,4.26,7,35.74,35.74,0,0,0,5.46,6c1.05.93,1.29,1.19,1.2,1.36s-.51.17-1.76-.61a22.79,22.79,0,0,1-6-6,31.33,31.33,0,0,1-4-7.37C245.73,147.46,245.74,147.08,245.91,147Z"/><path class="cls-17" d="M285.59,100.75c-.09,0-.47-.62-1.77-3.42-.31-.7-.81-1.49-1.32-2.45l-.85-1.55-1.09-1.72a61.46,61.46,0,0,0-6.9-8.94A72.75,72.75,0,0,0,260,71.14c-2.6-1.68-3.26-2-3.21-2.12s.21,0,.73.24,1.39.69,2.73,1.48a64.57,64.57,0,0,1,13.88,11.48,58,58,0,0,1,6.93,9.06L282.16,93c.29.57.57,1.09.83,1.58.49,1,1,1.79,1.25,2.51C285.45,100,285.67,100.72,285.59,100.75Z"/><path class="cls-17" d="M262.43,152a7.81,7.81,0,0,1,1.55-1.17,68.09,68.09,0,0,0,6.17-4.84,50.45,50.45,0,0,0,10.57-13,37.28,37.28,0,0,0,4.18-11.9,35.09,35.09,0,0,0-1.15-15.87,47.11,47.11,0,0,0-7.19-14.31,62.34,62.34,0,0,0-8.4-9.53,83.69,83.69,0,0,0-13.37-10.19c-3.36-2.08-5.54-3.2-6.84-3.88a9.57,9.57,0,0,1-1.7-.93,7.12,7.12,0,0,1,1.81.7,66.7,66.7,0,0,1,7,3.71,79.35,79.35,0,0,1,13.54,10.15,62.42,62.42,0,0,1,8.52,9.59,47.9,47.9,0,0,1,7.3,14.5,35.49,35.49,0,0,1,1.15,16.16,37.93,37.93,0,0,1-4.28,12.1,49.46,49.46,0,0,1-10.8,13,51.93,51.93,0,0,1-6.34,4.7A8.86,8.86,0,0,1,262.43,152Z"/><path class="cls-17" d="M185,135.1c-.07,0,.26-.7,1.87-3.23s4.44-7,9.14-14.8,7.32-12.4,8.85-15,1.94-3.18,2-3.13-.19.72-1.61,3.36-4,7.27-8.69,15.1-7.64,12.22-9.32,14.71S185,135.15,185,135.1Z"/><path class="cls-19" d="M230.66,184.08c.18,0,.81,3.15,3.84,23.36s3.37,23.44,3.19,23.46-.81-3.14-3.84-23.36S230.48,184.1,230.66,184.08Z"/><path class="cls-19" d="M254,222.75c-.18,0-.27-.51.11-3.45s.6-3.39.78-3.37.26.51-.12,3.45S254.15,222.77,254,222.75Z"/><path class="cls-19" d="M221.08,227.66c-.18,0-.25-1.25.3-9s.79-9,1-9,.24,1.25-.31,9S221.26,227.67,221.08,227.66Z"/><path class="cls-19" d="M213.77,125c0-.08.54.11,2.43,1a23.38,23.38,0,0,0,12,1.25,41.2,41.2,0,0,0,7.54-1.71c1.91-.6,3.27-1.13,4.25-1.53,2-.79,2.44-1,2.49-.9s-.37.42-2.3,1.33a37.39,37.39,0,0,1-4.25,1.68,38.65,38.65,0,0,1-7.64,1.79,27.34,27.34,0,0,1-7.87-.12,22.28,22.28,0,0,1-2.58-.66l-1.81-.7C214.12,125.43,213.73,125.09,213.77,125Z"/><path class="cls-19" d="M213.77,130.27c0-.09.54.11,2.43,1,1.93.73,5.58,2,12,1.25a42,42,0,0,0,7.54-1.71c1.91-.61,3.27-1.14,4.25-1.53,2-.8,2.44-1,2.49-.91s-.37.42-2.3,1.34a41.63,41.63,0,0,1-4.25,1.68,39.47,39.47,0,0,1-7.64,1.78,27.4,27.4,0,0,1-7.87-.11,24.52,24.52,0,0,1-2.58-.66l-1.81-.7C214.12,130.67,213.73,130.34,213.77,130.27Z"/><path class="cls-21" d="M231.28,58c0-.1.22-.17,1.07-.22a25.18,25.18,0,0,0,4.84-.68,16.13,16.13,0,0,0,4.47-1.89c.71-.45.89-.56,1-.49s0,.3-.69.87a12,12,0,0,1-4.57,2.16,16,16,0,0,1-5,.5C231.48,58.16,231.28,58.08,231.28,58Z"/><path class="cls-21" d="M222.52,59.38c0,.08-.18.11-.68-.06a8.91,8.91,0,0,1-2.59-1.59,7.65,7.65,0,0,1-1.94-2.34c-.24-.48-.2-.64-.12-.68s.19,0,.51.43a16,16,0,0,0,2,2.09,20.21,20.21,0,0,0,2.37,1.67C222.48,59.17,222.56,59.3,222.52,59.38Z"/><path class="cls-21" d="M224.48,65.91c.05-.09.35,0,1.45.37a12.77,12.77,0,0,0,6.77-.08,32.2,32.2,0,0,0,6.46-2.47c1.07-.53,1.35-.64,1.4-.56s-.14.32-1.18,1a23.16,23.16,0,0,1-6.53,2.7c-3.65.88-5.93.34-7.07-.12S224.44,66,224.48,65.91Z"/><path class="cls-21" d="M217.7,60.24c.05-.07.44.07,1.86.87a18.38,18.38,0,0,0,3.25,1.2,17.63,17.63,0,0,0,5.9.54,25.41,25.41,0,0,0,5.87-1.13,33,33,0,0,0,3.29-1.18c1.52-.64,1.88-.8,1.93-.72s-.25.38-1.73,1.14a22.67,22.67,0,0,1-3.31,1.34,24.17,24.17,0,0,1-6,1.21,17.34,17.34,0,0,1-6.11-.61,16.24,16.24,0,0,1-3.32-1.37C217.93,60.59,217.65,60.31,217.7,60.24Z"/><path class="cls-8" d="M254.79,11.17l.13,0h-1.46l.13,0-1.21-.7.09.1c-.23-.41-.47-.81-.7-1.21l0,.13c.09-.7.19-1.41.28-2.11l0,.06,2.36-1.36h0l1.94.8,0,0c-.4,1.53-.81,3.06-1.21,4.58h.08l-2.11-.28a2,2,0,0,1-.91-2.1c.23-.4.47-.8.7-1.21l2.53-.4c.3.27.38.33.23.19s-.08-.07.06.1a1.85,1.85,0,0,1,.05,2.21l-1,1q-1.56.3-.81.3a2.76,2.76,0,0,0,2.74-2.74,2.8,2.8,0,0,0-2.74-2.74,3.22,3.22,0,0,0-2.51.87,3.26,3.26,0,0,0-.78,3.07,4.24,4.24,0,0,0,2.95,2.9,3.19,3.19,0,0,0,4-3,3.65,3.65,0,0,0-1-2.54,3.06,3.06,0,0,0-2.94-.85,2.68,2.68,0,0,0-1.91,1.91,2.88,2.88,0,0,0,.7,2.67,2.68,2.68,0,0,0,2.72.72,2.81,2.81,0,0,0,2-2.33,3,3,0,0,0-3.8-3.23,2.74,2.74,0,0,0,1.46,5.28Z"/><path class="cls-4" d="M219.85,19.7s.51-10.88,10.44-14.54,21.43,2.14,25.48,5.16c3.49,2.6,12.89,15.63,4,25.13C259.82,35.45,237,20.33,219.85,19.7Z"/><path class="cls-8" d="M261.06,34.45,260.7,34a2.79,2.79,0,0,0-2.65-2l-1.8,0,1.91,1.92c-.55-2.25-1.38-2.87-3.26-4.11-2.08-1.37-3.37-3-5.71-3.72a3.87,3.87,0,0,0-1.53.25c-.2-.08-1.78-1.52-2.06-1.71a29.81,29.81,0,0,0-4.81-2.81c-1.14-.43-2.21-.19-3.33-.91-.69-.44-1.08-1.42-1.81-1.91-1-.7-2.1-.65-3.21-1-1.3-.45-2.55-1.32-3.9-1.65-2.09-.52-5.11-.27-7.16-.25s-3.52.27-4.85,2c-2.15,2.75,1.71,6.66,3.87,3.88,1.28-1.65,8.48.68,9.95,1.26,2.15.85,3.38,2.54,5.34,3.4,1.61.7,2.64.7,4.09,1.58,1.91,1.16,4.19,3,6.33,3.54.56.13,1.4,0,1.87.11.23.08.51.32,1.07.62s3.65,2.22,3.83,2.93a2.67,2.67,0,0,0,1.91,1.92,10.82,10.82,0,0,0,3.26.16l-2.64-2a5.52,5.52,0,0,0,1.77,2.89c2.61,2.37,6.5-1.5,3.88-3.88Z"/><path class="cls-17" d="M173.65,128c.08,0,.24.15.62,1a33.29,33.29,0,0,0,2.65,4.55,47.68,47.68,0,0,0,3.31,4.12c.61.68.72.88.66,1s-.29,0-1-.62a24.15,24.15,0,0,1-3.52-4.07,19.55,19.55,0,0,1-2.54-4.75C173.56,128.26,173.56,128,173.65,128Z"/><path class="cls-19" d="M214.59,209.75c.08,0,.16.13,0,.5a2.3,2.3,0,0,1-3.75.7c-.24-.29-.21-.42-.14-.48s.18,0,.44.13a2.49,2.49,0,0,0,1.64.35,2.41,2.41,0,0,0,1.4-.93C214.41,209.78,214.5,209.72,214.59,209.75Z"/></g></g></svg>